<?xml version="1.0" encoding="UTF-8"?>
<svg version="1.1" xmlns="http://www.w3.org/2000/svg" width="501" height="498">
<path d="M0 0 C1.51483894 -0.00458666 3.02967583 -0.00989933 4.54450989 -0.0158844 C7.69325296 -0.02472326 10.84174123 -0.02250182 13.99047852 -0.01245117 C17.16783031 -0.0032798 20.34444599 -0.010152 23.52172852 -0.03295898 C41.56374942 -0.16171435 58.95126231 0.06885952 76.58203125 4.43359375 C77.82331787 4.72661377 79.06460449 5.01963379 80.34350586 5.3215332 C83.4045969 6.0865223 86.42948944 6.92105507 89.45703125 7.80859375 C90.49947998 8.10822021 91.54192871 8.40784668 92.6159668 8.71655273 C105.5608142 12.50502002 117.60971332 17.18358205 129.58203125 23.43359375 C130.49726563 23.87058594 131.4125 24.30757812 132.35546875 24.7578125 C141.84388189 29.29405385 150.69242053 34.83932591 159.58203125 40.43359375 C161.14244141 41.41005859 161.14244141 41.41005859 162.734375 42.40625 C167.21882587 45.2896173 167.21882587 45.2896173 168.58203125 46.43359375 C168.58203125 47.09359375 168.58203125 47.75359375 168.58203125 48.43359375 C169.66484375 48.80484375 169.66484375 48.80484375 170.76953125 49.18359375 C173.85809707 50.55628967 176.09214543 52.15712671 178.58203125 54.43359375 C178.58203125 55.09359375 178.58203125 55.75359375 178.58203125 56.43359375 C179.90203125 56.76359375 181.22203125 57.09359375 182.58203125 57.43359375 C182.58203125 58.09359375 182.58203125 58.75359375 182.58203125 59.43359375 C183.45021484 59.80871094 183.45021484 59.80871094 184.3359375 60.19140625 C186.88073744 61.59879126 188.51651956 63.20642306 190.51953125 65.30859375 C192.67205338 67.52465897 194.70569163 69.53010917 197.14453125 71.43359375 C200.02560725 73.79755355 202.32156081 76.43778888 204.734375 79.26953125 C205.99850638 80.75014179 207.28356166 82.21307198 208.5859375 83.66015625 C209.22402344 84.36914062 209.86210937 85.078125 210.51953125 85.80859375 C211.10605469 86.45570312 211.69257813 87.1028125 212.296875 87.76953125 C213.58203125 89.43359375 213.58203125 89.43359375 213.58203125 91.43359375 C214.57203125 91.76359375 215.56203125 92.09359375 216.58203125 92.43359375 C218.24664187 94.50622615 219.76894695 96.55989766 221.26953125 98.74609375 C221.70942383 99.37620361 222.14931641 100.00631348 222.60253906 100.65551758 C223.93781739 102.57564396 225.26084691 104.50375138 226.58203125 106.43359375 C227.31550781 107.49320312 228.04898437 108.5528125 228.8046875 109.64453125 C232.52195909 115.10225948 235.93553276 120.62357889 239.015625 126.46484375 C240.16896573 128.65072642 241.34585828 130.81015055 242.5546875 132.96484375 C246.59820835 140.23938455 249.85337757 147.33477693 252.50390625 155.2421875 C253.4322011 157.9900748 254.45808256 160.63698555 255.58203125 163.30859375 C266.24101558 189.65519614 270.12897454 217.29064709 270.02807617 245.54980469 C270.01957428 249.16529549 270.0484378 252.77919535 270.08007812 256.39453125 C270.21542241 302.1671895 255.57555708 349.5900782 229.58203125 387.43359375 C229.05609375 388.21992188 228.53015625 389.00625 227.98828125 389.81640625 C220.91689368 400.18999839 213.0719981 410.03224675 204.56640625 419.26171875 C202.82084823 421.17221138 201.16345674 423.12363589 199.51953125 425.12109375 C195.67127105 429.64656175 191.29233653 434.53015866 185.58203125 436.43359375 C185.25203125 437.42359375 184.92203125 438.41359375 184.58203125 439.43359375 C181.13758681 442.43359375 181.13758681 442.43359375 178.58203125 442.43359375 C178.58203125 443.09359375 178.58203125 443.75359375 178.58203125 444.43359375 C177.06005859 445.80297852 177.06005859 445.80297852 174.91796875 447.375 C173.74004761 448.24390869 173.74004761 448.24390869 172.53833008 449.13037109 C171.68650146 449.74605957 170.83467285 450.36174805 169.95703125 450.99609375 C169.08908936 451.62725098 168.22114746 452.2584082 167.3269043 452.90869141 C141.63883346 471.4586863 112.74329696 484.81778446 82.14453125 493.12109375 C81.45472168 493.31155273 80.76491211 493.50201172 80.05419922 493.69824219 C77.57514744 494.34172879 75.08543047 494.89212158 72.58203125 495.43359375 C71.46884521 495.69543457 70.35565918 495.95727539 69.20874023 496.22705078 C54.43547375 499.37607749 39.29107182 498.96051344 24.26293945 498.93457031 C21.11281027 498.92987008 17.96369013 498.94366057 14.8137207 498.97558594 C-4.52225726 499.16923666 -22.57435392 498.35917994 -41.41796875 493.43359375 C-42.38362762 493.18510681 -43.3492865 492.93661987 -44.34420776 492.68060303 C-61.97575985 488.10274455 -78.45537467 481.7737504 -94.60449219 473.36816406 C-97.35443541 471.95098815 -100.1386031 470.60443035 -102.91796875 469.24609375 C-107.61096757 466.89326954 -112.06416516 464.36486745 -116.41796875 461.43359375 C-117.16175781 460.9334375 -117.90554687 460.43328125 -118.671875 459.91796875 C-128.19385463 453.37638403 -137.29461261 446.24974224 -146.23046875 438.93359375 C-147.22691406 438.11890625 -148.22335938 437.30421875 -149.25 436.46484375 C-149.96542969 435.79453125 -150.68085938 435.12421875 -151.41796875 434.43359375 C-151.41796875 433.77359375 -151.41796875 433.11359375 -151.41796875 432.43359375 C-152.000625 432.17578125 -152.58328125 431.91796875 -153.18359375 431.65234375 C-155.59825905 430.33525358 -157.23537052 428.88270991 -159.16796875 426.93359375 C-159.7815625 426.32515625 -160.39515625 425.71671875 -161.02734375 425.08984375 C-162.41796875 423.43359375 -162.41796875 423.43359375 -162.41796875 421.43359375 C-163.40796875 421.10359375 -164.39796875 420.77359375 -165.41796875 420.43359375 C-165.41796875 419.77359375 -165.41796875 419.11359375 -165.41796875 418.43359375 C-166.40796875 418.10359375 -167.39796875 417.77359375 -168.41796875 417.43359375 C-169.75244141 416.08251953 -169.75244141 416.08251953 -171.08203125 414.37890625 C-171.80519531 413.45658203 -171.80519531 413.45658203 -172.54296875 412.515625 C-173.03796875 411.86980469 -173.53296875 411.22398437 -174.04296875 410.55859375 C-174.54570312 409.92050781 -175.0484375 409.28242188 -175.56640625 408.625 C-177.7214257 405.85012281 -179.29448767 403.804037 -180.41796875 400.43359375 C-181.07796875 400.43359375 -181.73796875 400.43359375 -182.41796875 400.43359375 C-182.41796875 399.44359375 -182.41796875 398.45359375 -182.41796875 397.43359375 C-183.07796875 397.43359375 -183.73796875 397.43359375 -184.41796875 397.43359375 C-185.96875 395.2734375 -185.96875 395.2734375 -187.73046875 392.37109375 C-189.72259996 389.1400545 -191.69694477 385.96593565 -193.98046875 382.93359375 C-199.06813203 375.91327915 -202.72017127 367.90862648 -206.60546875 360.18359375 C-207.10494019 359.19178101 -207.10494019 359.19178101 -207.61450195 358.17993164 C-224.46520188 324.36418927 -232.02474057 287.2410478 -231.75415039 249.64477539 C-231.73019268 246.08001677 -231.73366395 242.51599263 -231.74023438 238.95117188 C-231.73466672 236.65754766 -231.72756263 234.36392654 -231.71875 232.0703125 C-231.71966141 231.01817062 -231.72057281 229.96602875 -231.72151184 228.88200378 C-231.66538843 223.03701633 -231.05358135 218.04464821 -229.41796875 212.43359375 C-228.98108519 209.91618545 -228.56528171 207.39504981 -228.16796875 204.87109375 C-225.54522346 189.30360426 -221.50134573 174.00540373 -215.41796875 159.43359375 C-214.94681409 158.14671118 -214.4782568 156.85887592 -214.01171875 155.5703125 C-212.48027524 151.45750083 -210.60726192 147.58503297 -208.60546875 143.68359375 C-207.89169432 142.27876407 -207.17815458 140.87381513 -206.46484375 139.46875 C-205.94180664 138.44225342 -205.94180664 138.44225342 -205.40820312 137.39501953 C-204.02398536 134.65320358 -202.69577964 131.88458421 -201.35546875 129.12109375 C-197.00542378 120.43276069 -191.56636295 112.49783924 -185.8984375 104.625 C-184.54100831 102.61571827 -183.44250519 100.62760104 -182.41796875 98.43359375 C-181.75796875 98.43359375 -181.09796875 98.43359375 -180.41796875 98.43359375 C-180.15757812 97.86511719 -179.8971875 97.29664062 -179.62890625 96.7109375 C-178.31344131 94.23701472 -176.78422206 92.18976877 -175.04296875 89.99609375 C-174.42292969 89.21492188 -173.80289063 88.43375 -173.1640625 87.62890625 C-172.29974609 86.54222656 -172.29974609 86.54222656 -171.41796875 85.43359375 C-170.65484375 84.42296875 -169.89171875 83.41234375 -169.10546875 82.37109375 C-168.54859375 81.73171875 -167.99171875 81.09234375 -167.41796875 80.43359375 C-166.75796875 80.43359375 -166.09796875 80.43359375 -165.41796875 80.43359375 C-164.92296875 78.94859375 -164.92296875 78.94859375 -164.41796875 77.43359375 C-162.48046875 75.24609375 -162.48046875 75.24609375 -160.41796875 73.43359375 C-159.75796875 73.43359375 -159.09796875 73.43359375 -158.41796875 73.43359375 C-157.92296875 71.94859375 -157.92296875 71.94859375 -157.41796875 70.43359375 C-155.48046875 68.24609375 -155.48046875 68.24609375 -153.41796875 66.43359375 C-152.75796875 66.43359375 -152.09796875 66.43359375 -151.41796875 66.43359375 C-150.92296875 64.94859375 -150.92296875 64.94859375 -150.41796875 63.43359375 C-147.45007771 60.66393971 -144.22956058 58.20665913 -141.03564453 55.70263672 C-139.44656459 54.45602677 -137.86767165 53.19732781 -136.2890625 51.9375 C-129.67859117 46.71075808 -122.86646468 41.96995825 -115.71875 37.5078125 C-113.75622751 36.27455872 -111.80904446 35.01537133 -109.8984375 33.703125 C-79.03281175 12.71051039 -37.30067363 -0.10190253 0 0 Z " fill="#0D0158" transform="translate(231.41796875,-0.43359375)"/>
<path d="M0 0 C1.414311 0.3028833 2.83100116 0.59489967 4.25 0.875 C38.30045475 8.40774449 72.49172129 27.16175535 93 56 C93.33 56.99 93.66 57.98 94 59 C93.03425049 59.48033691 92.06850098 59.96067383 91.07348633 60.45556641 C81.23950507 65.35481401 71.45036236 70.33570199 61.6875 75.375 C60.61988434 75.92560593 60.61988434 75.92560593 59.53070068 76.48733521 C50.88340627 80.94755305 42.24064864 85.41637439 33.625 89.9375 C32.495177 90.52893799 32.495177 90.52893799 31.3425293 91.13232422 C28.46403214 92.64977237 25.710277 94.19314866 23 96 C19.5942168 95.68302612 17.95432237 94.27605238 15.5625 91.9375 C4.85585622 82.34858277 -7.45966358 77.22118816 -21 73 C-21.72815918 72.7726416 -22.45631836 72.5452832 -23.20654297 72.31103516 C-43.50024798 66.26797949 -69.32808143 65.95806192 -88.546875 75.625 C-105.22618798 84.97391428 -114.01540467 97.54504455 -119.54638672 115.80371094 C-123.55639388 135.21922462 -120.0804352 155.30139062 -109.35546875 171.7109375 C-106.44749893 175.91514579 -103.2337722 179.12708315 -99 182 C-97.87851563 182.77537109 -97.87851563 182.77537109 -96.734375 183.56640625 C-87.39951833 189.57383821 -76.97926722 193.43672685 -66 195 C-65.28328125 195.11085938 -64.5665625 195.22171875 -63.828125 195.3359375 C-41.15161906 198.22914688 -14.9732789 195.76048384 4 182 C5.65 180.35 7.3 178.7 9 177 C-25.155 176.505 -25.155 176.505 -60 176 C-60 156.2 -60 136.4 -60 116 C-8.52 116 42.96 116 96 116 C96 166.16 96 216.32 96 268 C74.88 268 53.76 268 32 268 C28.58363971 247.50183824 28.58363971 247.50183824 27.9375 239 C27.53884585 233.87670209 27.03509234 228.91146427 25.94921875 223.8828125 C25.00752252 219.433374 24.79231385 215.42273822 24.875 210.875 C24.89304687 209.57304687 24.91109375 208.27109375 24.9296875 206.9296875 C24.95289063 205.96289062 24.97609375 204.99609375 25 204 C24.34 204 23.68 204 23 204 C22.87882813 204.70898438 22.75765625 205.41796875 22.6328125 206.1484375 C18.23709009 225.95632242 2.92551078 242.59060252 -13.125 254.125 C-25.66792445 262.0272613 -39.59272821 266.06221978 -54 269 C-54.90524414 269.18691406 -55.81048828 269.37382812 -56.74316406 269.56640625 C-64.90830731 271.09925245 -72.95740985 271.4017871 -81.25 271.375 C-81.94565063 271.3737915 -82.64130127 271.37258301 -83.35803223 271.37133789 C-108.36259106 271.25432746 -131.53930451 266.36837344 -153 253 C-154.16402344 252.29037109 -154.16402344 252.29037109 -155.3515625 251.56640625 C-180.96400472 234.83906207 -196.57361439 208.8642276 -205 180 C-205.52207031 178.33324219 -205.52207031 178.33324219 -206.0546875 176.6328125 C-213.72327498 147.16262094 -212.32550189 112.79515659 -203 84 C-202.70351562 83.07058594 -202.40703125 82.14117187 -202.1015625 81.18359375 C-196.00895637 63.29632702 -186.00296358 48.49080926 -173 35 C-172.28199219 34.20722656 -171.56398437 33.41445312 -170.82421875 32.59765625 C-132.82941501 -8.116173 -50.30755706 -14.6965897 0 0 Z " fill="#02FD70" transform="translate(266,120)"/>
<path d="M0 0 C0.64195312 0.4125 1.28390625 0.825 1.9453125 1.25 C2.97011719 1.86875 2.97011719 1.86875 4.015625 2.5 C10.80957576 7.04652218 16.35211998 13.72663444 18.3828125 21.75 C18.61602004 23.24357641 18.80309042 24.74503185 18.9453125 26.25 C19.02652344 27.04148438 19.10773438 27.83296875 19.19140625 28.6484375 C19.72835276 38.96431902 15.76325898 47.33928067 9.16015625 55.0859375 C1.75094669 62.325271 -7.31012711 64.64918219 -17.44213867 64.54101562 C-27.55760906 64.2731547 -33.80758374 60.22268675 -41.0546875 53.25 C-48.41788718 44.06745495 -49.15469915 33.59662013 -48.0546875 22.25 C-45.81984342 12.21859758 -39.73577912 6.02463486 -31.3984375 0.51171875 C-22.39690499 -4.33410625 -9.10737747 -4.98654888 0 0 Z " fill="#03FD70" transform="translate(415.0546875,117.75)"/>
<path d="M0 0 C50.82 0 101.64 0 154 0 C154 49.5 154 99 154 150 C133.21 150 112.42 150 91 150 C87.51785714 130.26785714 87.51785714 130.26785714 88 120 C88.66 120.33 89.32 120.66 90 121 C90.37890625 124.08984375 90.37890625 124.08984375 90.5625 127.9375 C90.62577741 132.63351942 90.62577741 132.63351942 92 137 C92 140.96 92 144.92 92 149 C112.13 149 132.26 149 153 149 C153 100.16 153 51.32 153 1 C152.01 1.33 151.02 1.66 150 2 C147.99589233 2.09146478 145.98881328 2.12194181 143.98262024 2.12025452 C142.72478729 2.12162918 141.46695435 2.12300385 140.17100525 2.12442017 C138.77456641 2.12088102 137.37812782 2.11724621 135.98168945 2.11352539 C134.51328534 2.11324336 133.04488108 2.11340156 131.57647705 2.1139679 C127.5871002 2.11425525 123.5977533 2.10836843 119.60838342 2.10139394 C115.44035509 2.09515019 111.27232611 2.09455579 107.10429382 2.09336853 C99.21016798 2.09025824 91.31605596 2.0820489 83.42193621 2.07201904 C74.43534061 2.06084856 65.44874436 2.05534509 56.46214354 2.05032361 C37.97475293 2.03986605 19.48738127 2.02152429 1 2 C1 20.15 1 38.3 1 57 C23.11 57 45.22 57 68 57 C68 57.33 68 57.66 68 58 C45.56 58 23.12 58 0 58 C0 38.86 0 19.72 0 0 Z " fill="#15F17E" transform="translate(207,237)"/>
<path d="M0 0 C1.15056381 -0.00135956 1.15056381 -0.00135956 2.32437134 -0.00274658 C4.50671177 -0.00245402 6.68879624 0.00640256 8.87109375 0.01953125 C10.13751709 0.02702393 11.40394043 0.0345166 12.70874023 0.04223633 C15.5625 0.1875 15.5625 0.1875 16.5625 1.1875 C18.0512186 1.27419432 19.543945 1.29453494 21.03515625 1.28515625 C22.38383789 1.28032227 22.38383789 1.28032227 23.75976562 1.27539062 C24.70529297 1.26701172 25.65082031 1.25863281 26.625 1.25 C27.57439453 1.24548828 28.52378906 1.24097656 29.50195312 1.23632812 C31.85553065 1.2245011 34.20898477 1.20802025 36.5625 1.1875 C37.0575 2.1775 37.0575 2.1775 37.5625 3.1875 C39.88966 3.56150786 42.22367862 3.89514733 44.5625 4.1875 C45.0575 4.6825 45.0575 4.6825 45.5625 5.1875 C46.90997084 5.41825082 48.26627565 5.59903063 49.625 5.75 C50.924375 5.894375 52.22375 6.03875 53.5625 6.1875 C53.5625 6.8475 53.5625 7.5075 53.5625 8.1875 C52.06184346 8.0706456 50.5619897 7.94347952 49.0625 7.8125 C48.2271875 7.74289063 47.391875 7.67328125 46.53125 7.6015625 C43.5625 7.1875 43.5625 7.1875 39.82421875 6.21875 C12.99906998 -0.70651157 -17.08582129 2.87310651 -44.27905273 5.91210938 C-47.35055733 6.17991931 -50.35619911 6.23630348 -53.4375 6.1875 C-46.74987247 2.44242858 -39.62849348 1.67991219 -32.125 1.0625 C-31.11622803 0.97830811 -30.10745605 0.89411621 -29.06811523 0.80737305 C-19.38090324 0.09549171 -9.70817335 -0.00076566 0 0 Z " fill="#001746" transform="translate(218.4375,112.8125)"/>
<path d="M0 0 C0.99 0.495 0.99 0.495 2 1 C-2.02794433 4.52445129 -6.18483402 6.7776157 -11 9 C-12.11375 9.515625 -13.2275 10.03125 -14.375 10.5625 C-18.18877511 12.07485909 -22.01443289 13.24272586 -25.9609375 14.3515625 C-27.9724539 14.8192661 -27.9724539 14.8192661 -29 16 C-32.05911104 16.44887079 -35.11734038 16.81743331 -38.18945312 17.16210938 C-41.18702268 17.52607883 -43.88440853 17.95648443 -46.71728516 19.02294922 C-50.6456714 20.1921744 -54.29870953 20.26948736 -58.35546875 20.23046875 C-59.53064812 20.22978142 -59.53064812 20.22978142 -60.72956848 20.2290802 C-62.37596157 20.22607357 -64.02235222 20.21823521 -65.66870117 20.20581055 C-68.1900436 20.18748151 -70.71101955 20.18530163 -73.23242188 20.18554688 C-74.83594068 20.1806336 -76.439457 20.17480611 -78.04296875 20.16796875 C-79.17269356 20.16629951 -79.17269356 20.16629951 -80.32524109 20.16459656 C-83.47966456 20.13589424 -85.98538873 20.00487042 -89 19 C-91.05893621 18.77674186 -93.12233653 18.59294241 -95.1875 18.4375 C-96.27417969 18.35371094 -97.36085937 18.26992188 -98.48046875 18.18359375 C-99.72763672 18.09271484 -99.72763672 18.09271484 -101 18 C-101 17.34 -101 16.68 -101 16 C-101.66 15.67 -102.32 15.34 -103 15 C-101.33317469 15.1440088 -99.66654815 15.29031844 -98 15.4375 C-96.6078125 15.55931641 -96.6078125 15.55931641 -95.1875 15.68359375 C-92.9715794 15.90355646 -90.76118818 16.18420471 -88.55859375 16.51171875 C-58.59820087 20.2736095 -27.50855003 15.67023084 -1 1 C-0.67 0.67 -0.34 0.34 0 0 Z " fill="#013949" transform="translate(252,373)"/>
<path d="M0 0 C-1.32 0.33 -2.64 0.66 -4 1 C-4 0.34 -4 -0.32 -4 -1 C-4.58652344 -1.12632812 -5.17304688 -1.25265625 -5.77734375 -1.3828125 C-7.95221334 -1.98673059 -9.59835326 -2.78050786 -11.5625 -3.875 C-15.81149036 -6.07966481 -20.14377209 -7.2458531 -24.77734375 -8.38671875 C-27 -9 -27 -9 -28 -10 C-29.49496842 -10.20699563 -30.9966592 -10.36679259 -32.5 -10.5 C-36.88888889 -10.88888889 -36.88888889 -10.88888889 -38 -12 C-52.84155339 -13.78362882 -72.1253954 -15.84758406 -86.078125 -9.765625 C-89.5870869 -8.36774587 -93.30368207 -7.72728478 -97 -7 C-95.13007018 -10.73985963 -90.3734474 -11.45490445 -86.625 -12.82421875 C-59.18628876 -21.72405936 -23.85328567 -16.06553213 0 0 Z " fill="#01384B" transform="translate(272,204)"/>
<path d="M0 0 C1.01552193 3.15732574 0.91812701 5.08774981 0.08203125 8.2734375 C-1.45157396 15.34068309 -1.34998005 22.4313967 -1.3125 29.625 C-1.31067719 30.34799286 -1.30885437 31.07098572 -1.30697632 31.81588745 C-1.23182671 49.59941795 -0.0210901 66.96726179 5.9140625 83.85546875 C6.85533419 86.58109359 7.51914777 89.16297183 8 92 C2.50704225 86.92957746 2.50704225 86.92957746 2 83 C1.52450414 80.46402206 1.19280354 79.21985506 -0.53125 77.25390625 C-2.45202235 74.30633805 -2.27174848 72.42061836 -2.125 68.9375 C-1.95353448 64.39063672 -1.95353448 64.39063672 -3 60 C-3.1024144 58.30399803 -3.14843689 56.60431735 -3.16113281 54.90527344 C-3.17074036 53.86699402 -3.1803479 52.8287146 -3.19024658 51.75897217 C-3.19449646 50.6371051 -3.19874634 49.51523804 -3.203125 48.359375 C-3.20882507 47.20383118 -3.21452515 46.04828735 -3.22039795 44.85772705 C-3.22985069 42.40988074 -3.23638301 39.96202169 -3.24023438 37.51416016 C-3.24992543 33.77874367 -3.28094114 30.04388073 -3.3125 26.30859375 C-3.31903159 23.92969077 -3.32428145 21.55078385 -3.328125 19.171875 C-3.3404718 18.05810486 -3.3528186 16.94433472 -3.36553955 15.79681396 C-3.3482376 9.73822832 -2.89495198 5.35996059 0 0 Z " fill="#03324D" transform="translate(58,222)"/>
<path d="M0 0 C-9.13920112 4.5000769 -18.07509221 8.51610793 -28 11 C-29.03713135 11.27287842 -29.03713135 11.27287842 -30.09521484 11.55126953 C-41.83231245 14.55083455 -53.37187385 15.37710358 -65.4375 15.375 C-66.10705719 15.37681274 -66.77661438 15.37862549 -67.46646118 15.38049316 C-76.83225585 15.37762035 -85.77393316 14.55633351 -95 13 C-95 12.67 -95 12.34 -95 12 C-94.42752029 12.00444122 -93.85504059 12.00888245 -93.26521301 12.01345825 C-87.24560064 12.05809572 -81.22603614 12.08803207 -75.20629883 12.10986328 C-72.96702155 12.11985071 -70.72775708 12.1334453 -68.48852539 12.15087891 C-51.11529236 12.55878317 -51.11529236 12.55878317 -34 10 C-33.67 9.67 -33.34 9.34 -33 9 C-30.32941149 8.85884839 -27.67567762 8.95752893 -25 9 C-25 8.34 -25 7.68 -25 7 C-22.69 7 -20.38 7 -18 7 C-18 6.34 -18 5.68 -18 5 C-16.35 5 -14.7 5 -13 5 C-13 4.34 -13 3.68 -13 3 C-11.5903653 2.29819469 -10.17192359 1.61406042 -8.75 0.9375 C-7.96109375 0.55464844 -7.1721875 0.17179687 -6.359375 -0.22265625 C-3.74006478 -1.08564091 -2.55144824 -0.93045933 0 0 Z " fill="#19D77F" transform="translate(249,376)"/>
<path d="M0 0 C0 0.33 0 0.66 0 1 C-3.3 1 -6.6 1 -10 1 C-10 0.34 -10 -0.32 -10 -1 C-10.85271484 -0.98259766 -10.85271484 -0.98259766 -11.72265625 -0.96484375 C-12.88087891 -0.95130859 -12.88087891 -0.95130859 -14.0625 -0.9375 C-14.81660156 -0.92589844 -15.57070312 -0.91429688 -16.34765625 -0.90234375 C-19 -1 -19 -1 -22.01953125 -1.4934082 C-26.7836094 -2.18875757 -31.53297293 -2.18072124 -36.33984375 -2.203125 C-37.33163132 -2.20991272 -38.32341888 -2.21670044 -39.34526062 -2.22369385 C-42.54270579 -2.24062336 -45.74001295 -2.24688815 -48.9375 -2.25 C-50.56096344 -2.25350464 -50.56096344 -2.25350464 -52.21722412 -2.25708008 C-67.03929594 -2.2692074 -81.39252452 -1.80262532 -96.02832031 0.71875 C-98.69627105 1.0993195 -101.31126631 1.10441684 -104 1 C-81.60680505 -13.92879664 -24.69973583 -7.8163721 0 0 Z " fill="#1CCD80" transform="translate(266,120)"/>
<path d="M0 0 C0 0.99 0 1.98 0 3 C2.31193977 5.07277359 4.02935582 6.00978527 7 7 C7 7.66 7 8.32 7 9 C11.29 9.66 15.58 10.32 20 11 C20 11.66 20 12.32 20 13 C21.423125 12.9690625 21.423125 12.9690625 22.875 12.9375 C26 13 26 13 28 14 C30.47832659 14.15626576 32.93311331 14.25813198 35.4140625 14.31640625 C36.14370209 14.33718735 36.87334167 14.35796844 37.62509155 14.37937927 C39.95829763 14.44481917 42.29161721 14.50373368 44.625 14.5625 C46.20574095 14.60569053 47.78647039 14.64930499 49.3671875 14.69335938 C53.24467504 14.80049481 57.12227685 14.90177782 61 15 C61 15.33 61 15.66 61 16 C40.354413 21.16139675 15.30425435 15.74862416 -2.7109375 5.4921875 C-5.60696401 3.60433404 -7.76199839 1.62386396 -10 -1 C-5.94568308 -2.15837626 -3.78187881 -1.83691257 0 0 Z " fill="#003046" transform="translate(173,300)"/>
<path d="M0 0 C0.66 0 1.32 0 2 0 C2.03738281 0.88558594 2.07476562 1.77117187 2.11328125 2.68359375 C2.48201339 9.63166407 3.12999266 16.3511506 4.4375 23.1875 C6.25440672 32.73427767 7.14511061 42.32692661 8 52 C8.17015625 53.83691406 8.17015625 53.83691406 8.34375 55.7109375 C8.56856184 58.14015433 8.7881782 60.56962361 9 63 C6.76442307 59.64663461 6.14060214 56.69275362 5.4375 52.8125 C5.30674072 52.11068604 5.17598145 51.40887207 5.04125977 50.68579102 C3.92741344 44.33962155 3.52587797 38.05402352 3.30859375 31.62109375 C2.98728127 27.85075618 2.09328731 24.61333567 1 21 C0.74411484 19.36088654 0.52748711 17.71444365 0.375 16.0625 C0.30023438 15.29035156 0.22546875 14.51820313 0.1484375 13.72265625 C0.07496094 12.86994141 0.07496094 12.86994141 0 12 C-0.66 12 -1.32 12 -2 12 C-2.66 13.65 -3.32 15.3 -4 17 C-4.66 17 -5.32 17 -6 17 C-4.13236819 11.27789404 -2.14710968 5.62338249 0 0 Z " fill="#013C4E" transform="translate(289,324)"/>
<path d="M0 0 C0.66 0 1.32 0 2 0 C2.03738281 0.70382812 2.07476562 1.40765625 2.11328125 2.1328125 C2.58637285 9.23846283 3.73182908 15.94391274 5.37890625 22.87109375 C5.93830144 25.68917894 6.12293612 28.14039898 6 31 C6.66 31 7.32 31 8 31 C8.25523438 32.03447266 8.25523438 32.03447266 8.515625 33.08984375 C9.97389629 38.74452338 11.6899317 43.96079487 14.23046875 49.22265625 C15 51 15 51 15 53 C15.66 53 16.32 53 17 53 C17.33 54.98 17.66 56.96 18 59 C18.66 59 19.32 59 20 59 C20.268125 59.598125 20.53625 60.19625 20.8125 60.8125 C21.99917406 62.99847854 23.09599113 64.41332594 25 66 C25.66 66 26.32 66 27 66 C26.67 67.98 26.34 69.96 26 72 C22.21156761 68.63250454 19.97548512 64.88348625 17.5625 60.5 C17.16708008 59.78585937 16.77166016 59.07171875 16.36425781 58.3359375 C6.85890952 40.9029569 -0.42170571 20.06431385 0 0 Z " fill="#15D77D" transform="translate(57,272)"/>
<path d="M0 0 C0.33 0 0.66 0 1 0 C1.19622241 4.21878192 0.80230168 7.17010894 -1 11 C-1.66 11 -2.32 11 -3 11 C-3 11.66 -3 12.32 -3 13 C-11.29318447 21.97110146 -20.82551126 26.43408217 -33 27 C-40.13067683 26.5444548 -45.82047588 24.49784384 -52 21 C-52 20.34 -52 19.68 -52 19 C-52.66 19 -53.32 19 -54 19 C-54 18.34 -54 17.68 -54 17 C-54.66 17 -55.32 17 -56 17 C-55.67 16.34 -55.34 15.68 -55 15 C-54.25234375 15.49371094 -53.5046875 15.98742187 -52.734375 16.49609375 C-51.74953125 17.13675781 -50.7646875 17.77742188 -49.75 18.4375 C-48.77546875 19.07558594 -47.8009375 19.71367187 -46.796875 20.37109375 C-39.73000605 24.48685402 -29.8483357 24.17690471 -22.0390625 22.28125 C-19.57011877 21.33925301 -17.30965336 20.28126756 -15 19 C-14.35546875 18.649375 -13.7109375 18.29875 -13.046875 17.9375 C-6.45707307 13.81171097 -2.67610745 7.13628653 0 0 Z " fill="#01404C" transform="translate(432,158)"/>
<path d="M0 0 C0.66 0.33 1.32 0.66 2 1 C1.175 1.825 0.35 2.65 -0.5 3.5 C-3.77537032 7.31346687 -6.00193169 11.47436256 -8.25 15.9375 C-8.76143555 16.93910156 -8.76143555 16.93910156 -9.28320312 17.9609375 C-13.89839684 27.37483164 -14.29024661 35.68509245 -14.1875 46.0625 C-14.1865332 47.92358398 -14.1865332 47.92358398 -14.18554688 49.82226562 C-14.15752844 55.6407614 -14.06379017 61.27255375 -13 67 C-17.72835778 59.90746332 -17.33319836 54.18665274 -17.3125 45.75 C-17.32861328 44.45191406 -17.34472656 43.15382812 -17.36132812 41.81640625 C-17.36491147 34.78588008 -17.01123485 29.37278663 -14 23 C-13.70996094 22.22269531 -13.41992188 21.44539063 -13.12109375 20.64453125 C-11.7903284 17.07808012 -10.43288195 13.52709403 -9 10 C-8.34 10 -7.68 10 -7 10 C-6.89816406 9.40703125 -6.79632813 8.8140625 -6.69140625 8.203125 C-5.88644348 5.63815889 -4.88433098 4.57256517 -2.9375 2.75 C-2.38964844 2.22921875 -1.84179688 1.7084375 -1.27734375 1.171875 C-0.85582031 0.78515625 -0.43429688 0.3984375 0 0 Z " fill="#16D27C" transform="translate(160,206)"/>
<path d="M0 0 C0.99 0.495 0.99 0.495 2 1 C2.37890625 4.08984375 2.37890625 4.08984375 2.5625 7.9375 C2.62577741 12.63351942 2.62577741 12.63351942 4 17 C4 20.96 4 24.92 4 29 C24.46 29 44.92 29 66 29 C66 29.33 66 29.66 66 30 C45.21 30 24.42 30 3 30 C-0.48214286 10.26785714 -0.48214286 10.26785714 0 0 Z " fill="#20EC88" transform="translate(295,357)"/>
<path d="M0 0 C1.32 0.33 2.64 0.66 4 1 C4 1.66 4 2.32 4 3 C4.99 3.33 5.98 3.66 7 4 C7 4.99 7 5.98 7 7 C7.66 7 8.32 7 9 7 C9.375 10.25 9.375 10.25 9 14 C5.97801244 16.80086652 3.91083217 17.89284327 -0.1875 18.375 C-4.9658178 19.15833079 -8.24986576 21.2252048 -12.3515625 23.72265625 C-15.17523111 25.08451412 -16.91047117 25.26210804 -20 25 C-15.48493708 21.45389053 -10.50899457 18.96638811 -5.4375 16.3125 C-3.99987305 15.54583008 -3.99987305 15.54583008 -2.53320312 14.76367188 C-1.61345703 14.28091797 -0.69371094 13.79816406 0.25390625 13.30078125 C1.09252197 12.85903564 1.9311377 12.41729004 2.79516602 11.9621582 C5 11 5 11 8 11 C7.50628906 10.37351563 7.01257813 9.74703125 6.50390625 9.1015625 C5.86324219 8.28429687 5.22257812 7.46703125 4.5625 6.625 C3.92441406 5.81289062 3.28632813 5.00078125 2.62890625 4.1640625 C1 2 1 2 0 0 Z " fill="#061654" transform="translate(352,168)"/>
<path d="M0 0 C2.97 0 5.94 0 9 0 C9 0.66 9 1.32 9 2 C10.2065625 2.1546875 10.2065625 2.1546875 11.4375 2.3125 C15.78247386 3.15100373 19.83457527 4.52821659 24 6 C24 6.66 24 7.32 24 8 C25.65 8 27.3 8 29 8 C29 8.66 29 9.32 29 10 C29.99 9.67 30.98 9.34 32 9 C32 9.99 32 10.98 32 12 C33.27875 12.144375 34.5575 12.28875 35.875 12.4375 C38.25692894 12.70642746 39.84452691 12.92226346 42 14 C42 14.66 42 15.32 42 16 C43.29233607 17.37310707 44.62437146 18.71034824 46 20 C42.8187464 20 42.02989841 19.63553376 39.40234375 18.05859375 C38.69182861 17.64287109 37.98131348 17.22714844 37.24926758 16.79882812 C36.48638428 16.34958984 35.72350098 15.90035156 34.9375 15.4375 C23.86595759 9.09220758 12.30894112 4.35551737 0 1 C0 0.67 0 0.34 0 0 Z " fill="#01244A" transform="translate(279,123)"/>
<path d="M0 0 C-0.16015625 2.30859375 -0.16015625 2.30859375 -1 5 C-3.43359375 6.66015625 -3.43359375 6.66015625 -6.4375 8.0625 C-10.47202828 9.96141097 -12.21950663 10.93145181 -14 15 C-15.5859375 16.34375 -15.5859375 16.34375 -17.375 17.5 C-19.60844705 18.99821293 -21.29291488 20.30128387 -23.1875 22.25 C-25.14555919 24.14053991 -26.34110686 24.62015812 -29 25 C-28.34 23.68 -27.68 22.36 -27 21 C-26.34 21 -25.68 21 -25 21 C-24.67 20.01 -24.34 19.02 -24 18 C-21.8828125 16.0546875 -21.8828125 16.0546875 -19.125 13.875 C-18.13886719 13.08996094 -17.15273437 12.30492187 -16.13671875 11.49609375 C-15.62157715 11.08858887 -15.10643555 10.68108398 -14.57568359 10.26123047 C-12.99729537 8.99783512 -11.44326498 7.70967974 -9.89453125 6.41015625 C-8.91871094 5.59417969 -7.94289063 4.77820312 -6.9375 3.9375 C-6.03902344 3.18339844 -5.14054687 2.42929687 -4.21484375 1.65234375 C-2 0 -2 0 0 0 Z " fill="#534A83" transform="translate(105,45)"/>
<path d="M0 0 C0.99 0.495 0.99 0.495 2 1 C2 1.99 2 2.98 2 4 C2.66 4 3.32 4 4 4 C4.33 3.34 4.66 2.68 5 2 C5.66 2 6.32 2 7 2 C7 2.66 7 3.32 7 4 C7.66 4 8.32 4 9 4 C9.22127098 6.29045368 9.4266504 8.58244764 9.625 10.875 C9.74101562 12.15117187 9.85703125 13.42734375 9.9765625 14.7421875 C9.98429688 15.81726563 9.99203125 16.89234375 10 18 C9.34 18.66 8.68 19.32 8 20 C3.58842388 13.47974599 0.96794863 7.84372163 0 0 Z " fill="#071352" transform="translate(147,270)"/>
<path d="M0 0 C1.72974441 0.00015918 3.45949355 0.0058569 5.18920898 0.01586914 C6.09783188 0.01728409 7.00645477 0.01869904 7.94261169 0.02015686 C10.85687494 0.02577346 13.77106254 0.03832874 16.68530273 0.05102539 C18.65600475 0.05603825 20.62670797 0.06060153 22.59741211 0.06469727 C27.43923832 0.07574828 32.28100768 0.09302401 37.12280273 0.11352539 C37.61780273 1.10352539 37.61780273 1.10352539 38.12280273 2.11352539 C41.15214764 2.77124967 41.15214764 2.77124967 44.12280273 3.11352539 C44.12280273 3.77352539 44.12280273 4.43352539 44.12280273 5.11352539 C42.56000653 4.97090127 40.99757578 4.82427028 39.43530273 4.67602539 C38.56518555 4.59481445 37.69506836 4.51360352 36.79858398 4.42993164 C34.12280273 4.11352539 34.12280273 4.11352539 31.79272461 3.60424805 C27.00444062 2.72417756 22.16585052 2.92314526 17.31030273 2.92602539 C16.19985596 2.92538086 15.08940918 2.92473633 13.9453125 2.92407227 C5.19619242 2.97985971 -3.24817553 3.67321178 -11.87719727 5.11352539 C-10.87719727 3.11352539 -10.87719727 3.11352539 -7.87719727 2.05102539 C-6.39219727 1.58696289 -6.39219727 1.58696289 -4.87719727 1.11352539 C-3.87719727 0.11352539 -3.87719727 0.11352539 0 0 Z " fill="#1FE188" transform="translate(197.877197265625,185.886474609375)"/>
<path d="M0 0 C6.46516224 0.0137119 12.73241615 0.11062408 19.12109375 1.1328125 C19.12109375 1.7928125 19.12109375 2.4528125 19.12109375 3.1328125 C19.86359375 3.2153125 20.60609375 3.2978125 21.37109375 3.3828125 C24.63330729 4.2725071 25.93064253 5.61784999 28.12109375 8.1328125 C27.79109375 8.7928125 27.46109375 9.4528125 27.12109375 10.1328125 C26.52941406 9.79507813 25.93773437 9.45734375 25.328125 9.109375 C24.53792969 8.66335937 23.74773437 8.21734375 22.93359375 7.7578125 C22.15628906 7.31695312 21.37898438 6.87609375 20.578125 6.421875 C15.42070868 3.71607629 11.20257838 2.74547509 5.37109375 2.7578125 C4.66243164 2.75797363 3.95376953 2.75813477 3.22363281 2.75830078 C-2.64558784 2.88589253 -6.89700322 4.16533113 -11.87890625 7.1328125 C-13.20849969 7.80690708 -14.54087016 8.47563548 -15.87890625 9.1328125 C-15.54890625 8.1428125 -15.21890625 7.1528125 -14.87890625 6.1328125 C-14.21890625 6.1328125 -13.55890625 6.1328125 -12.87890625 6.1328125 C-12.87890625 5.4728125 -12.87890625 4.8128125 -12.87890625 4.1328125 C-12.24082031 3.92785156 -11.60273438 3.72289063 -10.9453125 3.51171875 C-10.11902344 3.24230469 -9.29273438 2.97289063 -8.44140625 2.6953125 C-7.61769531 2.42847656 -6.79398437 2.16164063 -5.9453125 1.88671875 C-0.88597236 0.04087254 -0.88597236 0.04087254 0 0 Z " fill="#012449" transform="translate(394.87890625,112.8671875)"/>
<path d="M0 0 C0.33 0 0.66 0 1 0 C1.22540089 1.99814845 1.42941964 3.99871264 1.625 6 C1.74101563 7.11375 1.85703125 8.2275 1.9765625 9.375 C2 13 2 13 1.02734375 16.63085938 C-0.18537123 21.27856566 -0.34776529 25.7465221 -0.4140625 30.53125 C-0.43342865 31.40777222 -0.4527948 32.28429443 -0.4727478 33.18737793 C-0.53202621 35.95815622 -0.57871987 38.72897725 -0.625 41.5 C-0.66322751 43.39064207 -0.70228195 45.28126761 -0.7421875 47.171875 C-0.8376845 51.7811141 -0.92190406 56.39043457 -1 61 C-1.33 61 -1.66 61 -2 61 C-2.05086743 53.59850003 -2.08580388 46.19704546 -2.10986328 38.79541016 C-2.11989737 36.2794425 -2.13352768 33.76348643 -2.15087891 31.24755859 C-2.17524097 27.62334322 -2.18650931 23.99928256 -2.1953125 20.375 C-2.20563507 19.25697998 -2.21595764 18.13895996 -2.22659302 16.98706055 C-2.22745177 10.9584153 -1.76727047 5.77267586 0 0 Z M4 9 C4.33 9.66 4.66 10.32 5 11 C4.34 10.67 3.68 10.34 3 10 C3.33 9.67 3.66 9.34 4 9 Z " fill="#6D65A2" transform="translate(2,212)"/>
<path d="M0 0 C0.99 0 1.98 0 3 0 C1.87051419 3.01196215 0.58020403 5.88542514 -0.875 8.75 C-6.24976011 19.41989414 -10.30996834 30.34319616 -13 42 C-13.33 42 -13.66 42 -14 42 C-14.46812475 35.79734704 -13.28985714 31.40334194 -11.0234375 25.6328125 C-9.79065971 22.4614681 -8.87595629 19.28483608 -8 16 C-7.34 16 -6.68 16 -6 16 C-6 14.68 -6 13.36 -6 12 C-5.34 12 -4.68 12 -4 12 C-4 10.35 -4 8.7 -4 7 C-3.34 7 -2.68 7 -2 7 C-2 6.01 -2 5.02 -2 4 C-1.34 4 -0.68 4 0 4 C0 2.68 0 1.36 0 0 Z " fill="#00294A" transform="translate(73,176)"/>
<path d="M0 0 C6.78082192 5.42465753 6.78082192 5.42465753 9 9 C9 9.66 9 10.32 9 11 C-2.71875 16.859375 -2.71875 16.859375 -4.84765625 17.91992188 C-6.31797836 18.65775139 -7.78397078 19.40425624 -9.24609375 20.15820312 C-14.78935185 23 -14.78935185 23 -17 23 C-17 22.34 -17 21.68 -17 21 C-16.01 21 -15.02 21 -14 21 C-13.67 20.01 -13.34 19.02 -13 18 C-12.2575 17.87625 -11.515 17.7525 -10.75 17.625 C-8.17069951 17.03879534 -6.2517838 16.36715445 -4 15 C-3.67 14.34 -3.34 13.68 -3 13 C-1.68 13 -0.36 13 1 13 C2.30059064 10.26814404 2.30059064 10.26814404 3 7 C1.71815438 4.25167846 1.71815438 4.25167846 0 2 C0 1.34 0 0.68 0 0 Z " fill="#15DD7D" transform="translate(351,168)"/>
<path d="M0 0 C1.58383488 0.11847584 3.16704288 0.24532272 4.75 0.375 C6.07257813 0.47941406 6.07257813 0.47941406 7.421875 0.5859375 C9.45522909 0.8212383 11.48709057 1.0938178 13.49707031 1.48095703 C22.12465899 3.13065035 30.51320633 3.23266102 39.25 3.125 C40.68879577 3.11493849 42.12759845 3.10581831 43.56640625 3.09765625 C47.04441753 3.0759206 50.52216245 3.04157033 54 3 C53.67 3.66 53.34 4.32 53 5 C47.92798214 5.02471188 42.85599929 5.04286564 37.78393555 5.05493164 C36.0583434 5.05996158 34.33275552 5.06678626 32.60717773 5.07543945 C30.1274307 5.08756361 27.64774 5.09324169 25.16796875 5.09765625 C24.01001045 5.10539818 24.01001045 5.10539818 22.82865906 5.11329651 C19.6169772 5.11363318 17.06979734 5.02326578 14 4 C11.94106379 3.77674186 9.87766347 3.59294241 7.8125 3.4375 C6.18248047 3.31181641 6.18248047 3.31181641 4.51953125 3.18359375 C3.68808594 3.12300781 2.85664063 3.06242187 2 3 C2 2.34 2 1.68 2 1 C1.34 0.67 0.68 0.34 0 0 Z " fill="#000E49" transform="translate(149,388)"/>
<path d="M0 0 C0.66 0.33 1.32 0.66 2 1 C1.2531799 5.42083165 -0.11710006 9.58156741 -1.5625 13.8125 C-1.79646484 14.50537109 -2.03042969 15.19824219 -2.27148438 15.91210938 C-2.84491676 17.60900114 -3.42208169 19.30463078 -4 21 C-4.33 21 -4.66 21 -5 21 C-6.46127436 13.6936282 -7.26453741 7.47577904 -3 1 C-2.01 0.67 -1.02 0.34 0 0 Z " fill="#1E1464" transform="translate(488,323)"/>
<path d="M0 0 C17.83922205 -0.26248102 17.83922205 -0.26248102 25.44580078 1.04150391 C25.44580078 1.37150391 25.44580078 1.70150391 25.44580078 2.04150391 C24.72626221 2.03626709 24.00672363 2.03103027 23.26538086 2.02563477 C1.40110295 0.80377616 1.40110295 0.80377616 -19.63232422 5.27587891 C-23.14128611 6.67375804 -26.85788129 7.31421913 -30.55419922 8.04150391 C-28.67948944 4.29208434 -24.01506481 3.53365645 -20.26123047 2.15087891 C-13.54830895 0.14195403 -6.93954619 0.11276265 0 0 Z " fill="#000E49" transform="translate(205.55419921875,188.95849609375)"/>
<path d="M0 0 C1.04804027 3.22704067 0.89786091 5.28804581 0.08837891 8.56005859 C-1.11446156 14.08569779 -1.34580609 19.39841722 -1.4140625 25.0390625 C-1.43342865 26.04593109 -1.4527948 27.05279968 -1.4727478 28.09017944 C-1.53195608 31.26837002 -1.57869152 34.446598 -1.625 37.625 C-1.66323397 39.79558767 -1.70228874 41.96616104 -1.7421875 44.13671875 C-1.83760831 49.42435115 -1.92282291 54.7120715 -2 60 C-2.33 60 -2.66 60 -3 60 C-3.07622759 52.58022664 -3.12867461 45.16055475 -3.16479492 37.74047852 C-3.17985705 35.21765367 -3.20031077 32.6948549 -3.22631836 30.17211914 C-3.26281383 26.54046176 -3.2797526 22.90915142 -3.29296875 19.27734375 C-3.30845261 18.15416245 -3.32393646 17.03098114 -3.33988953 15.87376404 C-3.34119068 9.78367976 -2.91966781 5.38471607 0 0 Z " fill="#002749" transform="translate(58,222)"/>
<path d="M0 0 C11.41332081 0.0284557 18.8945119 2.74325178 27.59179688 10.38037109 C31.59179688 14.78037109 31.59179688 14.78037109 31.59179688 17.38037109 C30.60179687 17.05037109 29.61179687 16.72037109 28.59179688 16.38037109 C27.90429688 14.31787109 27.90429688 14.31787109 27.59179688 12.38037109 C26.93179688 12.38037109 26.27179688 12.38037109 25.59179688 12.38037109 C24.91117187 11.63787109 24.23054688 10.89537109 23.52929688 10.13037109 C15.12050268 1.69762022 3.72267471 2.6068386 -7.40820312 2.38037109 C-4.93290634 -0.09492569 -3.38943908 0.07421534 0 0 Z " fill="#1BCD7F" transform="translate(397.408203125,114.61962890625)"/>
<path d="M0 0 C13.08708036 1.86958291 26.05880504 9.85092375 37 17 C37 17.33 37 17.66 37 18 C35.35 18 33.7 18 32 18 C31.67 17.34 31.34 16.68 31 16 C30.34 15.835 29.68 15.67 29 15.5 C28.34 15.335 27.68 15.17 27 15 C26.67 14.34 26.34 13.68 26 13 C23.69034152 11.94647157 21.3570226 10.94280904 19 10 C19 9.34 19 8.68 19 8 C18.360625 7.9175 17.72125 7.835 17.0625 7.75 C13.52808921 6.88443001 10.45874144 5.50265675 7.16015625 3.98828125 C4.80353332 2.9101156 2.41658785 1.93545336 0 1 C0 0.67 0 0.34 0 0 Z " fill="#18D57E" transform="translate(288,127)"/>
<path d="M0 0 C0.33 0 0.66 0 1 0 C1.02716824 2.54173977 1.04691969 5.08318415 1.0625 7.625 C1.07087891 8.33785156 1.07925781 9.05070313 1.08789062 9.78515625 C1.10720697 13.9961194 0.70034813 17.83910816 0 22 C-0.26223461 25.62181998 -0.41256263 29.24700724 -0.5625 32.875 C-0.60568359 33.84953125 -0.64886719 34.8240625 -0.69335938 35.828125 C-0.79882274 38.21862802 -0.90094175 40.60922444 -1 43 C-1.33 43 -1.66 43 -2 43 C-2.04993675 38.48341286 -2.08597002 33.96697774 -2.10986328 29.45019531 C-2.11983806 27.91794022 -2.13342276 26.38570375 -2.15087891 24.85351562 C-2.24479186 16.39030162 -2.25042199 8.23801601 0 0 Z " fill="#11C577" transform="translate(58,226)"/>
<path d="M0 0 C2.96175123 0.61277612 4.38058783 1.25372522 7 3 C6.67 3.99 6.34 4.98 6 6 C6.66 6 7.32 6 8 6 C11.68394343 12.21665454 12.38623885 17.34719009 12.375 24.4375 C12.37693359 25.64575439 12.37693359 25.64575439 12.37890625 26.87841797 C12.26982888 32.73017112 12.26982888 32.73017112 10 35 C10.03480469 34.11699219 10.06960938 33.23398438 10.10546875 32.32421875 C10.373727 20.43143614 9.32519007 11.87113214 1.42578125 2.6796875 C0 1 0 1 0 0 Z " fill="#01274A" transform="translate(423,123)"/>
<path d="M0 0 C5.3821421 2.11939274 9.97716467 4.74796791 14.75 8 C15.40871094 8.43828125 16.06742187 8.8765625 16.74609375 9.328125 C19.77866408 11.37034275 22.46469176 13.34779547 25 16 C24.01 16.33 23.02 16.66 22 17 C21.34 16.01 20.68 15.02 20 14 C17.21462489 13.21438138 14.8996083 13 12 13 C12 11.35 12 9.7 12 8 C10.35 8 8.7 8 7 8 C7 7.34 7 6.68 7 6 C5.68 5.34 4.36 4.68 3 4 C3 3.34 3 2.68 3 2 C2.01 2 1.02 2 0 2 C0 1.34 0 0.68 0 0 Z " fill="#3E3877" transform="translate(373,30)"/>
<path d="M0 0 C0.33 1.32 0.66 2.64 1 4 C-0.98 4.99 -0.98 4.99 -3 6 C-3 6.66 -3 7.32 -3 8 C-3.99431832 9.00564958 -4.99519239 10.00483083 -6 11 C-8.15482873 14.59649351 -9.78322224 18.32416346 -11.0625 22.3125 C-12.0010872 25.00311663 -12.82365558 26.21935456 -15 28 C-13.73612439 17.33807497 -7.57568167 7.41449695 0 0 Z " fill="#01334D" transform="translate(162,206)"/>
<path d="M0 0 C1.051875 0.598125 2.10375 1.19625 3.1875 1.8125 C3.826875 2.17601562 4.46625 2.53953125 5.125 2.9140625 C6.6651168 3.80604681 8.18022715 4.74107286 9.6875 5.6875 C13.44578925 7.82058309 16.70252808 8.12376507 20.984375 8.09765625 C21.91894531 8.09443359 22.85351562 8.09121094 23.81640625 8.08789062 C25.26853516 8.07532227 25.26853516 8.07532227 26.75 8.0625 C27.73355469 8.05798828 28.71710938 8.05347656 29.73046875 8.04882812 C32.15370791 8.03706483 34.57682273 8.02062684 37 8 C36.67 8.66 36.34 9.32 36 10 C24.32067107 13.2144942 14.41943134 11.89779132 4 6 C4 5.34 4 4.68 4 4 C3.34 4 2.68 4 2 4 C2 3.34 2 2.68 2 2 C1.34 2 0.68 2 0 2 C0 1.34 0 0.68 0 0 Z " fill="#01274B" transform="translate(376,173)"/>
<path d="M0 0 C0.66 0 1.32 0 2 0 C2 0.66 2 1.32 2 2 C2.66 2 3.32 2 4 2 C4 2.66 4 3.32 4 4 C5.32 4.33 6.64 4.66 8 5 C8 5.66 8 6.32 8 7 C8.99 7 9.98 7 11 7 C11 7.66 11 8.32 11 9 C11.63808594 9.13277344 12.27617187 9.26554688 12.93359375 9.40234375 C13.75988281 9.57894531 14.58617187 9.75554687 15.4375 9.9375 C16.26121094 10.11152344 17.08492188 10.28554687 17.93359375 10.46484375 C20 11 20 11 21 12 C23.18292774 12.23481693 25.37203174 12.41363323 27.5625 12.5625 C28.76003906 12.64628906 29.95757812 12.73007813 31.19140625 12.81640625 C32.11824219 12.87699219 33.04507813 12.93757812 34 13 C34 13.33 34 13.66 34 14 C20.82085775 14.46332922 13.48626352 13.38740021 3.00390625 4.9375 C1 3 1 3 0 0 Z " fill="#18D682" transform="translate(373,168)"/>
<path d="M0 0 C1.88428711 0.01353516 1.88428711 0.01353516 3.80664062 0.02734375 C6.89212522 0.05080751 9.97721205 0.08363799 13.0625 0.125 C13.0625 0.455 13.0625 0.785 13.0625 1.125 C8.61541355 1.55588073 4.16798654 1.98300371 -0.27978516 2.40673828 C-1.79095053 2.55122832 -3.30202032 2.69672176 -4.81298828 2.84326172 C-6.99226559 3.05443757 -9.17186786 3.26193159 -11.3515625 3.46875 C-12.6607666 3.59443359 -13.9699707 3.72011719 -15.31884766 3.84960938 C-18.54480777 4.09511491 -21.70434608 4.17750047 -24.9375 4.125 C-16.84861202 -0.40477727 -9.05796666 -0.12349614 0 0 Z " fill="#01334B" transform="translate(189.9375,114.875)"/>
<path d="M0 0 C2.10483837 3.15725756 2.30888017 4.39850283 2.5625 8.0625 C2.77633446 11.66760043 2.77633446 11.66760043 4 15 C4.07181821 17.71760108 4.09299506 20.40859388 4.0625 23.125 C4.05798828 23.87910156 4.05347656 24.63320313 4.04882812 25.41015625 C4.03703499 27.27347127 4.01909942 29.13674555 4 31 C3.67 31 3.34 31 3 31 C0.86594261 20.50755115 -0.45986864 10.74730045 0 0 Z " fill="#16CF7B" transform="translate(291,325)"/>
<path d="M0 0 C6.95776959 1.36874156 13.38603107 3.4533129 20 6 C16.28986601 8.47342266 14.38939738 8.38503486 10 8 C7.5625 6.5 7.5625 6.5 6 5 C6.33 4.67 6.66 4.34 7 4 C5.35 3.67 3.7 3.34 2 3 C2 2.34 2 1.68 2 1 C1.34 0.67 0.68 0.34 0 0 Z " fill="#4A4280" transform="translate(317,7)"/>
<path d="M0 0 C2.54815599 3.82223398 3.15978798 5.84288989 3.5 10.375 C3.78467511 14.25180195 3.78467511 14.25180195 4.52734375 18.0546875 C5.08332021 20.3429212 5.09707959 22.3985878 5.0625 24.75 C5.05347656 25.54921875 5.04445313 26.3484375 5.03515625 27.171875 C5.01775391 28.07679688 5.01775391 28.07679688 5 29 C3.10659568 26.15989351 2.65248892 25.01575444 2.1484375 21.796875 C2.01953125 20.98089844 1.890625 20.16492188 1.7578125 19.32421875 C1.63148437 18.47472656 1.50515625 17.62523437 1.375 16.75 C1.2409375 15.91597656 1.106875 15.08195312 0.96875 14.22265625 C0.23018276 9.4219692 -0.14435599 4.85561053 0 0 Z " fill="#59528B" transform="translate(1,273)"/>
<path d="M0 0 C0.99 0.495 0.99 0.495 2 1 C2.37890625 4.08984375 2.37890625 4.08984375 2.5625 7.9375 C2.62577741 12.63351942 2.62577741 12.63351942 4 17 C4.07033769 18.87379605 4.0843022 20.75001102 4.0625 22.625 C4.05347656 23.62789063 4.04445313 24.63078125 4.03515625 25.6640625 C4.02355469 26.43492187 4.01195312 27.20578125 4 28 C-0.35385114 23.64614886 0.07121259 15.13637769 -0.125 9.25 C-0.125 6.16388967 -0.09087405 3.08466904 0 0 Z " fill="#13D97C" transform="translate(295,357)"/>
<path d="M0 0 C0.66 0 1.32 0 2 0 C1.69255859 0.804375 1.69255859 0.804375 1.37890625 1.625 C-1.38604011 9.66848033 -1.69697008 17.57785798 -2 26 C-2.66 26 -3.32 26 -4 26 C-4.738041 8.14350797 -4.738041 8.14350797 0 0 Z " fill="#003E4D" transform="translate(369,130)"/>
<path d="M0 0 C1.08073852 3.24221555 1.21676408 5.60402937 1 9 C0.34 9.66 -0.32 10.32 -1 11 C-1.64767793 13.57061311 -1.64767793 13.57061311 -2 16 C-1.34 16 -0.68 16 0 16 C0 16.66 0 17.32 0 18 C-0.9590625 18.3403125 -0.9590625 18.3403125 -1.9375 18.6875 C-4.27193661 19.85250896 -4.27193661 19.85250896 -4.75 22.625 C-4.8325 23.40875 -4.915 24.1925 -5 25 C-5.66 25 -6.32 25 -7 25 C-6.00468562 18.52460172 -4.74255295 12.94219806 -2 7 C-1.25454882 4.68132668 -0.62488028 2.35531797 0 0 Z " fill="#5B538B" transform="translate(15,161)"/>
<path d="M0 0 C4.15633047 3.54057781 6.78130023 8.06248371 9 13 C9 13.99 9 14.98 9 16 C7.62437146 14.71034824 6.29233607 13.37310707 5 12 C5 11.34 5 10.68 5 10 C2.36 9.34 -0.28 8.68 -3 8 C-3 7.34 -3 6.68 -3 6 C-2.01 6 -1.02 6 0 6 C0 4.02 0 2.04 0 0 Z " fill="#372E71" transform="translate(459,109)"/>
<path d="M0 0 C0.99 0.33 1.98 0.66 3 1 C-10.27862595 8 -10.27862595 8 -18 8 C-18 7.34 -18 6.68 -18 6 C-15.69 5.34 -13.38 4.68 -11 4 C-11 3.01 -11 2.02 -11 1 C-10.06027344 1.01740234 -10.06027344 1.01740234 -9.1015625 1.03515625 C-7.87566406 1.04869141 -7.87566406 1.04869141 -6.625 1.0625 C-5.40683594 1.07990234 -5.40683594 1.07990234 -4.1640625 1.09765625 C-1.95062858 1.14466334 -1.95062858 1.14466334 0 0 Z " fill="#041551" transform="translate(263,305)"/>
<path d="M0 0 C0 1.66666667 0 3.33333333 0 5 C0.33 5.99 0.66 6.98 1 8 C0.36191406 8.33773437 -0.27617188 8.67546875 -0.93359375 9.0234375 C-1.75988281 9.46945313 -2.58617187 9.91546875 -3.4375 10.375 C-4.26121094 10.81585938 -5.08492187 11.25671875 -5.93359375 11.7109375 C-8.13466578 12.83418559 -8.13466578 12.83418559 -9 15 C-9.66 15 -10.32 15 -11 15 C-9.52834523 11.77707606 -7.69245806 9.15273288 -5.5 6.375 C-4.8915625 5.59898438 -4.283125 4.82296875 -3.65625 4.0234375 C-2 2 -2 2 0 0 Z " fill="#4C4482" transform="translate(62,83)"/>
<path d="M0 0 C0.66 0.33 1.32 0.66 2 1 C0.02 1.99 0.02 1.99 -2 3 C-2 3.66 -2 4.32 -2 5 C-2.99 5 -3.98 5 -5 5 C-4.67 5.99 -4.34 6.98 -4 8 C-4.721875 8.226875 -5.44375 8.45375 -6.1875 8.6875 C-9.53209313 10.24831013 -11.51603959 12.3031287 -14 15 C-14.66 14.34 -15.32 13.68 -16 13 C-5.62642369 3.40546697 -5.62642369 3.40546697 0 0 Z " fill="#13DB7E" transform="translate(112,139)"/>
<path d="M0 0 C1.32 0.33 2.64 0.66 4 1 C2.45454854 6.47932789 -0.15543212 11.11429181 -3 16 C-3.33 15.34 -3.66 14.68 -4 14 C-4.66 13.67 -5.32 13.34 -6 13 C-5.0409375 12.443125 -5.0409375 12.443125 -4.0625 11.875 C-1.36141928 9.41947207 -1.31592995 7.55421195 -1 4 C-1.66 3.67 -2.32 3.34 -3 3 C-2.34 3 -1.68 3 -1 3 C-0.67 2.01 -0.34 1.02 0 0 Z " fill="#3D3176" transform="translate(475,352)"/>
<path d="M0 0 C0 0.33 0 0.66 0 1 C-9.02139123 3.64972557 -17.53980718 5.64766507 -27 6 C-21.16132022 0.16132022 -7.86303432 -0.19178132 0 0 Z " fill="#4A457C" transform="translate(319,490)"/>
<path d="M0 0 C0.59425781 0.20109375 1.18851562 0.4021875 1.80078125 0.609375 C-1.65072791 2.47646101 -5.1114304 4.32580407 -8.57421875 6.171875 C-10.05148437 6.97141602 -10.05148437 6.97141602 -11.55859375 7.78710938 C-12.49960937 8.28662109 -13.440625 8.78613281 -14.41015625 9.30078125 C-15.27946777 9.76685791 -16.1487793 10.23293457 -17.04443359 10.71313477 C-17.7555127 11.00889404 -18.4665918 11.30465332 -19.19921875 11.609375 C-19.85921875 11.279375 -20.51921875 10.949375 -21.19921875 10.609375 C-20.20921875 10.279375 -19.21921875 9.949375 -18.19921875 9.609375 C-18.19921875 8.619375 -18.19921875 7.629375 -18.19921875 6.609375 C-17.63074219 6.43921875 -17.06226563 6.2690625 -16.4765625 6.09375 C-12.50106998 4.84601612 -8.92940504 3.57740468 -5.38671875 1.359375 C-2.19921875 -0.390625 -2.19921875 -0.390625 0 0 Z " fill="#17DF81" transform="translate(332.19921875,191.390625)"/>
<path d="M0 0 C2.68872443 2.35649699 3.9193851 4.63578765 5.25 7.9375 C5.78367187 9.21947266 5.78367187 9.21947266 6.328125 10.52734375 C7.04658772 13.17145366 6.91982605 14.45868571 6 17 C4 15 4 15 3.125 12.6875 C1.85078461 9.64354102 0.13817815 7.49454118 -2 5 C-1.34 5 -0.68 5 0 5 C0 3.35 0 1.7 0 0 Z " fill="#3F3477" transform="translate(477,141)"/>
<path d="M0 0 C4.93193965 0.54799329 7.42846781 4.23988395 10.5625 7.75 C12.30475797 9.26500693 13.74879482 9.61186118 16 10 C16 10.99 16 11.98 16 13 C17.32 13.66 18.64 14.32 20 15 C13.92016579 15 9.39798158 9.73229476 5.125 5.8125 C4.15820312 4.93207031 3.19140625 4.05164063 2.1953125 3.14453125 C1.47085938 2.43683594 0.74640625 1.72914063 0 1 C0 0.67 0 0.34 0 0 Z " fill="#18C97C" transform="translate(92,355)"/>
<path d="M0 0 C0 0.66 0 1.32 0 2 C-2.17969233 3.32716357 -4.36731621 4.63640322 -6.5625 5.9375 C-7.47612305 6.49727539 -7.47612305 6.49727539 -8.40820312 7.06835938 C-12.66756987 9.56989223 -16.07072433 10.600329 -21 11 C-17.39750049 8.0718145 -13.4592011 5.97587472 -9.375 3.8125 C-8.694375 3.44447266 -8.01375 3.07644531 -7.3125 2.69726562 C-2.24824617 0 -2.24824617 0 0 0 Z " fill="#002B47" transform="translate(317,201)"/>
<path d="M0 0 C0 0.66 0 1.32 0 2 C-0.66 2 -1.32 2 -2 2 C-2 2.66 -2 3.32 -2 4 C-3 5 -4 6 -5 7 C-5.33 7.99 -5.66 8.98 -6 10 C-8.97 9.505 -8.97 9.505 -12 9 C-5 0 -5 0 0 0 Z " fill="#041D4F" transform="translate(175,197)"/>
<path d="M0 0 C0.66 0.99 1.32 1.98 2 3 C1.54625 3.680625 1.0925 4.36125 0.625 5.0625 C-1.17461479 8.31564982 -1.99720808 11.42755378 -3 15 C-3.95564988 17.02156704 -4.94274747 19.02966574 -6 21 C-7.62321841 16.98622358 -6.26337932 14.37089229 -4.6875 10.5 C-4.23761719 9.3759375 -3.78773437 8.251875 -3.32421875 7.09375 C-2.28952303 4.67640778 -1.21605432 2.3293435 0 0 Z " fill="#12CD77" transform="translate(69,189)"/>
<path d="M0 0 C0 0.66 0 1.32 0 2 C-2.38927637 3.34640983 -4.7852573 4.67709053 -7.1875 6 C-7.86103516 6.3815625 -8.53457031 6.763125 -9.22851562 7.15625 C-12.95219622 9.1906511 -15.62865388 10.54323525 -20 10 C-16.57544124 7.20356382 -12.81870229 5.25995711 -8.875 3.3125 C-8.24207031 2.99216797 -7.60914063 2.67183594 -6.95703125 2.34179688 C-2.25346482 0 -2.25346482 0 0 0 Z " fill="#002C49" transform="translate(352,183)"/>
<path d="M0 0 C0.33 0 0.66 0 1 0 C1.14503905 6.67179653 1.12372612 13.62882164 -1 20 C-1.66 20 -2.32 20 -3 20 C-3.40850553 12.91923749 -1.90420731 6.80074041 0 0 Z " fill="#6D669B" transform="translate(6,192)"/>
<path d="M0 0 C1 3 1 3 0.0625 5.1875 C-0.288125 5.785625 -0.63875 6.38375 -1 7 C-1.66 7 -2.32 7 -3 7 C-3 8.32 -3 9.64 -3 11 C-3.66 11 -4.32 11 -5 11 C-5.268125 11.969375 -5.53625 12.93875 -5.8125 13.9375 C-6.204375 14.948125 -6.59625 15.95875 -7 17 C-7.99 17.33 -8.98 17.66 -10 18 C-8.47146065 13.72813475 -6.28490519 10.00673137 -3.875 6.1875 C-3.50246094 5.59001953 -3.12992187 4.99253906 -2.74609375 4.37695312 C-1.8342952 2.91573749 -0.91764024 1.45755415 0 0 Z " fill="#15CC7B" transform="translate(80,170)"/>
<path d="M0 0 C2.81965231 2.81965231 3.26535843 6.11319504 4.1875 9.875 C4.37763672 10.59558594 4.56777344 11.31617188 4.76367188 12.05859375 C5.68913063 15.76725872 6.12653757 18.35404127 5 22 C4.34 21.01 3.68 20.02 3 19 C2.34 18.67 1.68 18.34 1 18 C1.66 17.01 2.32 16.02 3 15 C2.37664397 12.98608051 1.69971973 10.98867713 1 9 C0.54559454 6.00971893 0.25446061 3.01334927 0 0 Z " fill="#5A518B" transform="translate(489,171)"/>
<path d="M0 0 C0.68835938 0.59748047 0.68835938 0.59748047 1.390625 1.20703125 C4.52271585 3.91142062 7.63877459 6.57991771 11 9 C10.67 9.66 10.34 10.32 10 11 C8.88625 10.505 7.7725 10.01 6.625 9.5 C3.34584251 7.8725494 3.34584251 7.8725494 1 8 C0.67 5.36 0.34 2.72 0 0 Z " fill="#413877" transform="translate(417,61)"/>
<path d="M0 0 C1.98 0 3.96 0 6 0 C2.58722301 2.67784729 -1.04842704 4.93808259 -4.75 7.1875 C-5.35199219 7.55552734 -5.95398438 7.92355469 -6.57421875 8.30273438 C-8.04838592 9.20361431 -9.52404317 10.10205516 -11 11 C-11 10.01 -11 9.02 -11 8 C-10.34 8 -9.68 8 -9 8 C-9 7.34 -9 6.68 -9 6 C-7.02 5.34 -5.04 4.68 -3 4 C-3 3.34 -3 2.68 -3 2 C-2.01 2 -1.02 2 0 2 C0 1.34 0 0.68 0 0 Z " fill="#00264A" transform="translate(117,133)"/>
<path d="M0 0 C0 3 0 3 -2.375 5.4375 C-3.24125 6.283125 -4.1075 7.12875 -5 8 C-6.29519995 10.16620544 -6.29519995 10.16620544 -7 12 C-7.66 12 -8.32 12 -9 12 C-9.33 13.98 -9.66 15.96 -10 18 C-10.66 18 -11.32 18 -12 18 C-11.83631219 11.61617531 -8.14883743 7.5096059 -4 3 C-2.69432411 1.96414855 -1.36836001 0.95150862 0 0 Z " fill="#16D07C" transform="translate(381,120)"/>
<path d="M0 0 C0 3.61656862 -1.02130767 5.0319615 -3 8 C-5.76223278 10.76223278 -8.20706617 10.57856291 -12 11 C-8.19588166 7.08060535 -4.18423892 3.50897269 0 0 Z " fill="#03284C" transform="translate(266,362)"/>
<path d="M0 0 C1.32 0.66 2.64 1.32 4 2 C0.77359867 6.90974115 -3.5615329 9.89672543 -9 12 C-9.99 11.67 -10.98 11.34 -12 11 C-11.195625 10.71125 -10.39125 10.4225 -9.5625 10.125 C-6.8673532 9.26737432 -6.8673532 9.26737432 -6 7 C-5.01 7 -4.02 7 -3 7 C-3 6.34 -3 5.68 -3 5 C-2.34 5 -1.68 5 -1 5 C-0.67 3.35 -0.34 1.7 0 0 Z " fill="#15E07F" transform="translate(422,168)"/>
<path d="M0 0 C0.33 0 0.66 0 1 0 C2.9775967 7.41598761 2.4980457 14.81811862 0 22 C-0.33 22 -0.66 22 -1 22 C-0.67 14.74 -0.34 7.48 0 0 Z " fill="#13CF7B" transform="translate(432,139)"/>
<path d="M0 0 C0.99 0 1.98 0 3 0 C2.979375 0.763125 2.95875 1.52625 2.9375 2.3125 C2.87057159 5.10185786 2.87057159 5.10185786 4 8 C6.00016466 9.20882096 6.00016466 9.20882096 8 10 C8 11.32 8 12.64 8 14 C7.34 14 6.68 14 6 14 C6 13.01 6 12.02 6 11 C5.34 11 4.68 11 4 11 C2.67578125 9.35546875 2.67578125 9.35546875 1.3125 7.1875 C0.85488281 6.47980469 0.39726563 5.77210938 -0.07421875 5.04296875 C-1 3 -1 3 0 0 Z " fill="#4E4683" transform="translate(43,386)"/>
<path d="M0 0 C4.82360189 -0.19294408 8.49646738 0.24252386 13 2 C13 2.66 13 3.32 13 4 C14.65 4 16.3 4 18 4 C18.33 4.99 18.66 5.98 19 7 C12.62267685 5.12275039 6.29304541 3.14328358 0 1 C0 0.67 0 0.34 0 0 Z " fill="#17CD7C" transform="translate(242,191)"/>
<path d="M0 0 C0.66 0.66 1.32 1.32 2 2 C3.98821313 2.39764263 5.98944339 2.73775349 8 3 C8 3.66 8 4.32 8 5 C2.39538469 4.57910004 -2.72086547 4.08386889 -8 2 C-8 1.67 -8 1.34 -8 1 C-1.9453125 0.0234375 -1.9453125 0.0234375 0 0 Z " fill="#13DE80" transform="translate(234,186)"/>
<path d="M0 0 C1.65 0.33 3.3 0.66 5 1 C-4.71428571 9 -4.71428571 9 -8 9 C-8 8.01 -8 7.02 -8 6 C-5.11165997 3.89229241 -3.61537605 3 0 3 C0 2.01 0 1.02 0 0 Z " fill="#463F79" transform="translate(386,456)"/>
<path d="M0 0 C2.77398263 3.46747828 4.95912413 7.06402511 7 11 C6.67 11.66 6.34 12.32 6 13 C5.01 12.01 4.02 11.02 3 10 C2.01 10.66 1.02 11.32 0 12 C-1.43348316 9.13303368 -0.55925559 7.10697549 0 4 C0 2.68 0 1.36 0 0 Z " fill="#0FDA75" transform="translate(148,277)"/>
<path d="M0 0 C1.32 1.32 2.64 2.64 4 4 C1.69 5.32 -0.62 6.64 -3 8 C-3.33 6.35 -3.66 4.7 -4 3 C-2.68 2.01 -1.36 1.02 0 0 Z " fill="#2E266D" transform="translate(406,440)"/>
<path d="M0 0 C-0.33 1.32 -0.66 2.64 -1 4 C-5.31392226 3.5206753 -7.16569547 2.2542015 -10 -1 C-5.94568308 -2.15837626 -3.78187881 -1.83691257 0 0 Z " fill="#031B4F" transform="translate(173,300)"/>
<path d="M0 0 C0 2 0 2 -1.5 3.5625 C-4.9985316 5.57415567 -7.98949133 5.66579094 -12 6 C-12.33 4.35 -12.66 2.7 -13 1 C-11.515 1.99 -11.515 1.99 -10 3 C-7.66569019 2.69879873 -5.98003553 1.99001776 -3.875 0.9375 C-2 0 -2 0 0 0 Z M-14 6 C-13.01 6.495 -13.01 6.495 -12 7 C-12.99 7.495 -12.99 7.495 -14 8 C-14 7.34 -14 6.68 -14 6 Z " fill="#022A4F" transform="translate(296,212)"/>
<path d="M0 0 C2.33364352 2.92903058 4.04960836 5.88568203 5.6875 9.25 C6.12449219 10.14203125 6.56148438 11.0340625 7.01171875 11.953125 C7.33785156 12.62859375 7.66398437 13.3040625 8 14 C7.01 14.495 7.01 14.495 6 15 C3.62317631 12.86285601 2.40068998 11.06221946 1.3125 8.0625 C1.06113281 7.39347656 0.80976562 6.72445313 0.55078125 6.03515625 C0 4 0 4 0 0 Z " fill="#012F4D" transform="translate(70,324)"/>
<path d="M0 0 C-4.27130511 4.27130511 -12.21882074 4.7677305 -18 6 C-16.44000409 2.88000818 -13.87220503 2.54883154 -10.6875 1.3125 C-9.53636719 0.85488281 -8.38523438 0.39726562 -7.19921875 -0.07421875 C-4.13717158 -0.96030566 -2.88822927 -1.176686 0 0 Z " fill="#023C4B" transform="translate(193,191)"/>
<path d="M0 0 C6.35219042 0.54881057 12.67873638 1.16511613 19 2 C19 2.33 19 2.66 19 3 C13.39 3 7.78 3 2 3 C2 2.34 2 1.68 2 1 C1.34 0.67 0.68 0.34 0 0 Z " fill="#012E4C" transform="translate(149,388)"/>
<path d="M0 0 C1.47906892 -0.02689216 2.95827483 -0.04634621 4.4375 -0.0625 C5.26121094 -0.07410156 6.08492188 -0.08570312 6.93359375 -0.09765625 C9 0 9 0 10 1 C11.34747084 1.23075082 12.70377565 1.41153063 14.0625 1.5625 C15.361875 1.706875 16.66125 1.85125 18 2 C18 2.66 18 3.32 18 4 C11.7945858 3.51679152 6.00054754 2.66681876 0 1 C0 0.67 0 0.34 0 0 Z " fill="#023549" transform="translate(254,117)"/>
<path d="M0 0 C5.40747098 2.14045726 10.14310063 4.80832327 15 8 C11.71023192 9.09658936 10.28696233 8.79953138 7 8 C7 7.34 7 6.68 7 6 C5.68 5.34 4.36 4.68 3 4 C3 3.34 3 2.68 3 2 C2.01 2 1.02 2 0 2 C0 1.34 0 0.68 0 0 Z " fill="#6D6796" transform="translate(373,30)"/>
<path d="M0 0 C5.91260345 -0.25706972 11.23918159 0.7017874 17 2 C17 2.33 17 2.66 17 3 C10.88909517 3.09945415 5.02596573 3.0712828 -1 2 C-0.67 1.34 -0.34 0.68 0 0 Z " fill="#524D87" transform="translate(279,0)"/>
<path d="M0 0 C2.97 0 5.94 0 9 0 C9.33 0.66 9.66 1.32 10 2 C10.99 2.33 11.98 2.66 13 3 C13 3.66 13 4.32 13 5 C8.15340923 4.40895235 4.39251833 3.02055843 0 1 C0 0.67 0 0.34 0 0 Z " fill="#13E380" transform="translate(124,378)"/>
<path d="M0 0 C0.66 0.99 1.32 1.98 2 3 C1.01 3.33 0.02 3.66 -1 4 C-1 5.98 -1 7.96 -1 10 C-3.50037734 7.82575883 -4.43628586 6.26954202 -5 3 C-4.34 3 -3.68 3 -3 3 C-3 2.34 -3 1.68 -3 1 C-2.01 0.67 -1.02 0.34 0 0 Z " fill="#3C3375" transform="translate(29,353)"/>
<path d="M0 0 C0.804375 0.4640625 0.804375 0.4640625 1.625 0.9375 C4.3984957 2.17827439 7.00042837 2.5909675 10 3 C10 2.34 10 1.68 10 1 C11.65 1 13.3 1 15 1 C8.39240506 6.01265823 8.39240506 6.01265823 6.0625 5.9375 C3.16067141 4.61848701 1.83163927 2.55121184 0 0 Z " fill="#1ADC80" transform="translate(281,210)"/>
<path d="M0 0 C-1.60387267 1.1254191 -3.20810916 2.25031972 -4.8125 3.375 C-5.70582031 4.00148437 -6.59914062 4.62796875 -7.51953125 5.2734375 C-9.33267878 6.53550239 -11.16188211 7.77458808 -13 9 C-13 7.68 -13 6.36 -13 5 C-11.02 4.34 -9.04 3.68 -7 3 C-7 2.01 -7 1.02 -7 0 C-3.98968256 -0.93423645 -3.13349732 -1.04449911 0 0 Z " fill="#15DB7B" transform="translate(176,196)"/>
<path d="M0 0 C0.99 0.33 1.98 0.66 3 1 C1.39801112 2.46072532 -0.20667116 3.91849716 -1.8125 5.375 C-2.70582031 6.18710938 -3.59914063 6.99921875 -4.51953125 7.8359375 C-7 10 -7 10 -10 12 C-9.67 10.68 -9.34 9.36 -9 8 C-8.34 8 -7.68 8 -7 8 C-6.773125 7.4225 -6.54625 6.845 -6.3125 6.25 C-4.63315609 3.37112473 -2.77209171 1.82552381 0 0 Z " fill="#00354A" transform="translate(102,144)"/>
<path d="M0 0 C2.97 0.33 5.94 0.66 9 1 C9.33 1.99 9.66 2.98 10 4 C11.32303717 4.3721042 12.65737935 4.70630173 14 5 C14.33 5.66 14.66 6.32 15 7 C9.76727367 5.36041242 4.84803364 3.61047965 0 1 C0 0.67 0 0.34 0 0 Z " fill="#635B8D" transform="translate(138,473)"/>
<path d="M0 0 C1.22213016 3.66639049 0.63855512 5.35293431 -0.3125 9.0625 C-0.57675781 10.12597656 -0.84101563 11.18945312 -1.11328125 12.28515625 C-2 15 -2 15 -4 17 C-4.48736475 10.29873464 -3.07708804 5.93438408 0 0 Z " fill="#575183" transform="translate(495,302)"/>
<path d="M0 0 C1.485 0.99 1.485 0.99 3 2 C3 2.66 3 3.32 3 4 C3.99 4.33 4.98 4.66 6 5 C5.67 6.98 5.34 8.96 5 11 C1.19015156 8.22920113 0.93159248 4.37131855 0 0 Z " fill="#554E89" transform="translate(16,337)"/>
<path d="M0 0 C0.66 0 1.32 0 2 0 C2.91657981 5.38490641 3.11138159 10.54230189 3 16 C2.67 16 2.34 16 2 16 C0.13216954 10.51324804 -0.2358396 5.77807024 0 0 Z " fill="#6D639E" transform="translate(498,214)"/>
<path d="M0 0 C2.625 0.375 2.625 0.375 5 1 C4.04578192 2.14926266 3.08647955 3.29430541 2.125 4.4375 C1.59132813 5.07558594 1.05765625 5.71367188 0.5078125 6.37109375 C-1 8 -1 8 -3 9 C-2.25 2.25 -2.25 2.25 0 0 Z " fill="#041E4E" transform="translate(374,121)"/>
<path d="M0 0 C0.99 0.66 1.98 1.32 3 2 C1.35 4.97 -0.3 7.94 -2 11 C-2.33 11 -2.66 11 -3 11 C-3.1875 7.625 -3.1875 7.625 -3 4 C-2.01 3.34 -1.02 2.68 0 2 C0 1.34 0 0.68 0 0 Z " fill="#3E3676" transform="translate(468,368)"/>
<path d="M0 0 C0.33 0.99 0.66 1.98 1 3 C-0.65234375 5.48046875 -0.65234375 5.48046875 -2.9375 8.1875 C-3.68902344 9.08855469 -4.44054687 9.98960937 -5.21484375 10.91796875 C-5.80394531 11.60503906 -6.39304687 12.29210937 -7 13 C-7.99 12.67 -8.98 12.34 -10 12 C-9.36191406 11.30132812 -8.72382813 10.60265625 -8.06640625 9.8828125 C-7.24011719 8.97273438 -6.41382813 8.06265625 -5.5625 7.125 C-4.73878906 6.22007812 -3.91507812 5.31515625 -3.06640625 4.3828125 C-0.99092058 2.18862073 -0.99092058 2.18862073 0 0 Z " fill="#013649" transform="translate(277,349)"/>
<path d="M0 0 C1.54627671 2.31941506 2.86182828 4.52979752 4.125 7 C4.47820312 7.680625 4.83140625 8.36125 5.1953125 9.0625 C6 11 6 11 6 14 C0.02023381 8.17356115 0.02023381 8.17356115 -0.0625 3.375 C-0.041875 2.26125 -0.02125 1.1475 0 0 Z " fill="#01374B" transform="translate(367,157)"/>
<path d="M0 0 C0.33 0 0.66 0 1 0 C1.19622241 4.21878192 0.80230168 7.17010894 -1 11 C-1.66 11 -2.32 11 -3 11 C-3 11.66 -3 12.32 -3 13 C-3.66 13 -4.32 13 -5 13 C-4.32116957 9.88452559 -3.25893098 7.14862279 -1.9375 4.25 C-1.57527344 3.45078125 -1.21304687 2.6515625 -0.83984375 1.828125 C-0.56269531 1.22484375 -0.28554688 0.6215625 0 0 Z " fill="#012E4C" transform="translate(432,158)"/>
<path d="M0 0 C2.97 0 5.94 0 9 0 C9 0.66 9 1.32 9 2 C10.32 2 11.64 2 13 2 C13.33 2.99 13.66 3.98 14 5 C12.22739369 4.54857225 10.4569632 4.08859477 8.6875 3.625 C7.20830078 3.24214844 7.20830078 3.24214844 5.69921875 2.8515625 C3 2 3 2 0 0 Z " fill="#01394D" transform="translate(279,123)"/>
<path d="M0 0 C0.99 0 1.98 0 3 0 C3 4 3 4 1.6875 5.484375 C0.125 6.65625 -1.4375 7.828125 -3 9 C-3.1875 6.6875 -3.1875 6.6875 -3 4 C-1.5 2.25 -1.5 2.25 0 1 C0 0.67 0 0.34 0 0 Z " fill="#322B6A" transform="translate(438,410)"/>
<path d="M0 0 C1.32 0.33 2.64 0.66 4 1 C4 1.99 4 2.98 4 4 C4.99 4.33 5.98 4.66 7 5 C7 5.99 7 6.98 7 8 C7.66 8 8.32 8 9 8 C8.67 8.99 8.34 9.98 8 11 C6.66375099 9.35653302 5.33107149 7.71016314 4 6.0625 C3.2575 5.14597656 2.515 4.22945313 1.75 3.28515625 C0 1 0 1 0 0 Z " fill="#16D378" transform="translate(83,344)"/>
<path d="M0 0 C0.99 0.33 1.98 0.66 3 1 C3 4.96 3 8.92 3 13 C0.89172945 9.83759418 0.66182535 8.49342531 0.375 4.8125 C0.30023438 3.91144531 0.22546875 3.01039063 0.1484375 2.08203125 C0.09945313 1.39496094 0.05046875 0.70789063 0 0 Z " fill="#6E6698" transform="translate(3,289)"/>
<path d="M0 0 C3.55007718 3.9050849 4.81819916 6.97734643 6 12 C5.34 12 4.68 12 4 12 C3.71125 11.360625 3.4225 10.72125 3.125 10.0625 C2.17176549 7.84793921 2.17176549 7.84793921 0 7 C0 4.69 0 2.38 0 0 Z " fill="#615A92" transform="translate(469,125)"/>
<path d="M0 0 C0 0.66 0 1.32 0 2 C-4.92737019 3.97094808 -8.78020872 4.1799928 -14 4 C-9.52281208 1.01520806 -5.36175907 0 0 0 Z " fill="#18D37D" transform="translate(160,121)"/>
<path d="M0 0 C0.66 0.33 1.32 0.66 2 1 C0.75023244 4.65316671 0.32901247 5.78065836 -3 8 C-3.33 8.99 -3.66 9.98 -4 11 C-4.66 11 -5.32 11 -6 11 C-4.54955729 6.89041233 -2.48889248 3.56741255 0 0 Z " fill="#4F4782" transform="translate(44,106)"/>
<path d="M0 0 C0.66 0.33 1.32 0.66 2 1 C1.67 1.99 1.34 2.98 1 4 C-2.26202163 5.30480865 -5.57956185 6.21066812 -9 7 C-6.25604436 4.05278838 -3.61662784 1.80831392 0 0 Z " fill="#666195" transform="translate(130,28)"/>
<path d="M0 0 C-1.83770936 2.34818418 -2.85004785 2.9666773 -5.8125 3.625 C-6.864375 3.74875 -7.91625 3.8725 -9 4 C-10.670625 4.2784375 -10.670625 4.2784375 -12.375 4.5625 C-13.24125 4.706875 -14.1075 4.85125 -15 5 C-10.87369509 1.38948321 -5.38708192 -1.79569397 0 0 Z " fill="#5E578F" transform="translate(172,12)"/>
<path d="M0 0 C1.62490954 -0.02698189 3.24994633 -0.04638757 4.875 -0.0625 C5.77992188 -0.07410156 6.68484375 -0.08570313 7.6171875 -0.09765625 C10 0 10 0 12 1 C12 1.66 12 2.32 12 3 C12.66 3.33 13.32 3.66 14 4 C12.22773547 3.71715982 10.457212 3.42339502 8.6875 3.125 C7.20830078 2.88136719 7.20830078 2.88136719 5.69921875 2.6328125 C3 2 3 2 0 0 Z " fill="#5C5588" transform="translate(187,491)"/>
<path d="M0 0 C8.03501094 -0.63019694 8.03501094 -0.63019694 12.0625 2 C12.701875 2.66 13.34125 3.32 14 4 C9.13103697 3.40380045 4.67209049 2.43023178 0 1 C0 0.67 0 0.34 0 0 Z " fill="#5B5385" transform="translate(172,487)"/>
<path d="M0 0 C3.3 0 6.6 0 10 0 C7.96180154 2.03819846 6.70582202 2.67841059 4.0625 3.6875 C3.37285156 3.95949219 2.68320312 4.23148437 1.97265625 4.51171875 C0 5 0 5 -3 4 C-2.34 4 -1.68 4 -1 4 C-0.67 2.68 -0.34 1.36 0 0 Z " fill="#504B84" transform="translate(335,481)"/>
<path d="M0 0 C0.66 0 1.32 0 2 0 C1.40075776 4.19469571 0.42500059 8.00999834 -1 12 C-1.33 12 -1.66 12 -2 12 C-2.33 9.03 -2.66 6.06 -3 3 C-2.34 3 -1.68 3 -1 3 C-0.67 2.01 -0.34 1.02 0 0 Z " fill="#4B4380" transform="translate(485,332)"/>
<path d="M0 0 C1.32 0.33 2.64 0.66 4 1 C4 1.66 4 2.32 4 3 C4.99 3.33 5.98 3.66 7 4 C7 4.99 7 5.98 7 7 C7.66 7 8.32 7 9 7 C8.67 8.32 8.34 9.64 8 11 C6.85204994 9.5433323 5.70670581 8.08461063 4.5625 6.625 C3.60537109 5.40683594 3.60537109 5.40683594 2.62890625 4.1640625 C1 2 1 2 0 0 Z " fill="#01344B" transform="translate(352,168)"/>
<path d="M0 0 C0.99 0.99 1.98 1.98 3 3 C0.525 4.485 0.525 4.485 -2 6 C-2 5.34 -2 4.68 -2 4 C-3.98 4.33 -5.96 4.66 -8 5 C-5.64722731 2.27573689 -3.37503669 1.1858237 0 0 Z " fill="#2B2269" transform="translate(124,33)"/>
<path d="M0 0 C-2.64 1.98 -5.28 3.96 -8 6 C-8.66 5.67 -9.32 5.34 -10 5 C-9.67 4.01 -9.34 3.02 -9 2 C-8.01 2 -7.02 2 -6 2 C-6 1.34 -6 0.68 -6 0 C-2.25 -1.125 -2.25 -1.125 0 0 Z " fill="#14DF7F" transform="translate(259,369)"/>
<path d="M0 0 C0.66 0.99 1.32 1.98 2 3 C0.47005208 4.23697917 -1.05989583 5.47395833 -2.58984375 6.7109375 C-4.13266437 7.9666391 -4.13266437 7.9666391 -5 10 C-5.66 10 -6.32 10 -7 10 C-5.33248852 6.05860922 -2.77289351 3.2107188 0 0 Z " fill="#13D17A" transform="translate(88,160)"/>
<path d="M0 0 C3.71599191 -0.20086443 4.77208445 -0.1519437 8 2 C10.64017635 2.81779841 13.30270591 3.3809489 16 4 C12.51799235 5.20655614 10.35462394 4.78332187 6.875 3.6875 C6.00617188 3.42324219 5.13734375 3.15898437 4.2421875 2.88671875 C2 2 2 2 0 0 Z " fill="#17C37A" transform="translate(137,383)"/>
<path d="M0 0 C0.33 0.66 0.66 1.32 1 2 C0.00390625 3.9453125 0.00390625 3.9453125 -1.4375 6.125 C-1.91058594 6.84945313 -2.38367188 7.57390625 -2.87109375 8.3203125 C-3.24363281 8.87460937 -3.61617188 9.42890625 -4 10 C-6 6.25 -6 6.25 -6 4 C-5.38125 3.896875 -4.7625 3.79375 -4.125 3.6875 C-1.63473516 3.12474627 -1.63473516 3.12474627 0 0 Z " fill="#15E07C" transform="translate(280,342)"/>
<path d="M0 0 C1.32 0.66 2.64 1.32 4 2 C0.96474514 4.02350324 -0.19426202 4.32124018 -3.6875 4.625 C-4.49574219 4.69976562 -5.30398437 4.77453125 -6.13671875 4.8515625 C-7.05904297 4.92503906 -7.05904297 4.92503906 -8 5 C-7 3 -7 3 -4 1.9375 C-2.515 1.4734375 -2.515 1.4734375 -1 1 C-0.67 0.67 -0.34 0.34 0 0 Z " fill="#12ED80" transform="translate(194,186)"/>
<path d="M0 0 C2.5 1.3125 2.5 1.3125 5 3 C5 3.99 5 4.98 5 6 C4.01 6.33 3.02 6.66 2 7 C1.01 6.34 0.02 5.68 -1 5 C-0.67 3.35 -0.34 1.7 0 0 Z " fill="#0B0B50" transform="translate(371,169)"/>
<path d="M0 0 C2.31 0 4.62 0 7 0 C7.33 0.66 7.66 1.32 8 2 C8.99 2.66 9.98 3.32 11 4 C3.57142857 3 3.57142857 3 0 2 C0 1.34 0 0.68 0 0 Z " fill="#013B51" transform="translate(186,311)"/>
<path d="M0 0 C0.33 0.99 0.66 1.98 1 3 C1.99 3.33 2.98 3.66 4 4 C3.67 4.66 3.34 5.32 3 6 C-0.0625 6.625 -0.0625 6.625 -3 7 C-1.125 1.125 -1.125 1.125 0 0 Z " fill="#41377A" transform="translate(27,135)"/>
<path d="M0 0 C2.475 0.495 2.475 0.495 5 1 C5 1.66 5 2.32 5 3 C5.66 3 6.32 3 7 3 C7.33 4.32 7.66 5.64 8 7 C4.2047869 5.50902342 2.38957269 3.24299151 0 0 Z " fill="#58518A" transform="translate(83,435)"/>
<path d="M0 0 C-1.1858237 3.37503669 -2.27573689 5.64722731 -5 8 C-5.33 6.35 -5.66 4.7 -6 3 C-2.25 0 -2.25 0 0 0 Z " fill="#4C437D" transform="translate(465,379)"/>
<path d="M0 0 C0.66 0.33 1.32 0.66 2 1 C0.02 3.31 -1.96 5.62 -4 8 C-4.33 7.01 -4.66 6.02 -5 5 C-4.67 4.34 -4.34 3.68 -4 3 C-3.34 3 -2.68 3 -2 3 C-2 2.34 -2 1.68 -2 1 C-1.34 0.67 -0.68 0.34 0 0 Z " fill="#16DC7D" transform="translate(273,352)"/>
<path d="M0 0 C1.485 0.99 1.485 0.99 3 2 C3 2.66 3 3.32 3 4 C3.99 4.33 4.98 4.66 6 5 C5.67 5.66 5.34 6.32 5 7 C2.4375 7.625 2.4375 7.625 0 8 C0 5.36 0 2.72 0 0 Z " fill="#48417C" transform="translate(442,87)"/>
<path d="M0 0 C0 0.33 0 0.66 0 1 C-1.65 1 -3.3 1 -5 1 C-5 1.66 -5 2.32 -5 3 C-7.31 3 -9.62 3 -12 3 C-8.2391768 -0.7608232 -5.0273023 -0.25136512 0 0 Z " fill="#423A7A" transform="translate(291,495)"/>
<path d="M0 0 C1.98 0.99 1.98 0.99 4 2 C4 2.99 4 3.98 4 5 C4.63106429 7.01151741 5.29373761 9.01363702 6 11 C2.80623468 9.40311734 1.42408504 6.16616965 0 3 C0 2.01 0 1.02 0 0 Z " fill="#6D6897" transform="translate(31,369)"/>
<path d="M0 0 C1.12377697 3.30435084 0.89554742 5.0506862 -0.4375 8.25 C-0.72496094 8.95640625 -1.01242187 9.6628125 -1.30859375 10.390625 C-1.53675781 10.92171875 -1.76492188 11.4528125 -2 12 C-2.66 12 -3.32 12 -4 12 C-2.66666667 8 -1.33333333 4 0 0 Z " fill="#01404D" transform="translate(287,329)"/>
<path d="M0 0 C3.51005335 1.6380249 6.45543849 3.03134491 9 6 C7.02 6.33 5.04 6.66 3 7 C2.67 6.34 2.34 5.68 2 5 C2.66 5 3.32 5 4 5 C4 4.34 4 3.68 4 3 C2.68 2.67 1.36 2.34 0 2 C0 1.34 0 0.68 0 0 Z " fill="#012D4E" transform="translate(272,205)"/>
<path d="M0 0 C0.66 0.33 1.32 0.66 2 1 C0.02 3.97 -1.96 6.94 -4 10 C-5 6 -5 6 -4.00390625 4.296875 C-2.66927083 2.86458333 -1.33463542 1.43229167 0 0 Z " fill="#002846" transform="translate(81,166)"/>
<path d="M0 0 C2.7972908 2.06756277 3.02692273 3.14440371 3.6875 6.6875 C3.790625 7.780625 3.89375 8.87375 4 10 C1 8 1 8 0.48828125 6.0546875 C0.32552083 4.03645833 0.16276042 2.01822917 0 0 Z " fill="#5F578C" transform="translate(480,148)"/>
<path d="M0 0 C0.66 1.32 1.32 2.64 2 4 C0.35 5.65 -1.3 7.3 -3 9 C-3.66 8.67 -4.32 8.34 -5 8 C-3.35 5.36 -1.7 2.72 0 0 Z " fill="#665E96" transform="translate(37,117)"/>
<path d="M0 0 C0.66 0.33 1.32 0.66 2 1 C2.625 3.5625 2.625 3.5625 3 6 C0.13275314 5.42655063 -0.8614515 5.1385485 -3 3 C-2.01 2.01 -1.02 1.02 0 0 Z " fill="#4B4381" transform="translate(130,464)"/>
<path d="M0 0 C0.99 0.99 1.98 1.98 3 3 C1.37660195 4.70884005 -0.29319053 6.37446717 -2 8 C-2.66 8 -3.32 8 -4 8 C-4 7.34 -4 6.68 -4 6 C-3.34 6 -2.68 6 -2 6 C-2 5.34 -2 4.68 -2 4 C-1.34 4 -0.68 4 0 4 C0 2.68 0 1.36 0 0 Z " fill="#3E3672" transform="translate(421,428)"/>
<path d="M0 0 C0.99 0.33 1.98 0.66 3 1 C3 4 3 4 2 6 C1.01 6 0.02 6 -1 6 C-0.67 4.02 -0.34 2.04 0 0 Z " fill="#362E6C" transform="translate(426,422)"/>
<path d="M0 0 C2.475 0.99 2.475 0.99 5 2 C4.34 3.65 3.68 5.3 3 7 C0 3.375 0 3.375 0 0 Z " fill="#554C88" transform="translate(11,323)"/>
<path d="M0 0 C0.66 0 1.32 0 2 0 C2.33 2.64 2.66 5.28 3 8 C2.01 8 1.02 8 0 8 C0 5.36 0 2.72 0 0 Z " fill="#594F8A" transform="translate(3,204)"/>
<path d="M0 0 C0.33 1.32 0.66 2.64 1 4 C-1.475 5.485 -1.475 5.485 -4 7 C-3.43628586 3.73045798 -2.50037734 2.17424117 0 0 Z " fill="#012149" transform="translate(162,206)"/>
<path d="M0 0 C2.61500768 2.36595933 4.38999603 4.86049226 6 8 C5.67 8.66 5.34 9.32 5 10 C0 4.5 0 4.5 0 0 Z " fill="#736C9E" transform="translate(463,115)"/>
<path d="M0 0 C1.32 0.33 2.64 0.66 4 1 C1.64722731 3.72426311 -0.62496331 4.8141763 -4 6 C-3.67 5.01 -3.34 4.02 -3 3 C-2.34 3 -1.68 3 -1 3 C-0.67 2.01 -0.34 1.02 0 0 Z " fill="#676093" transform="translate(67,77)"/>
<path d="M0 0 C3.99996286 1.33332095 4.83782337 3.4957827 7 7 C5.35 7 3.7 7 2 7 C2 5.35 2 3.7 2 2 C1.34 2 0.68 2 0 2 C0 1.34 0 0.68 0 0 Z " fill="#595187" transform="translate(428,72)"/>
<path d="M0 0 C1.98 0.66 3.96 1.32 6 2 C6.33 3.65 6.66 5.3 7 7 C6.67 6.34 6.34 5.68 6 5 C5.01 4.67 4.02 4.34 3 4 C3 3.34 3 2.68 3 2 C2.01 1.67 1.02 1.34 0 1 C0 0.67 0 0.34 0 0 Z " fill="#7A759F" transform="translate(63,416)"/>
<path d="M0 0 C-1.28913487 0.67154933 -2.58140204 1.33708859 -3.875 2 C-4.59429687 2.37125 -5.31359375 2.7425 -6.0546875 3.125 C-8 4 -8 4 -10 4 C-9.67 3.01 -9.34 2.02 -9 1 C-3.79245283 -1.26415094 -3.79245283 -1.26415094 0 0 Z " fill="#002E49" transform="translate(266,306)"/>
<path d="M0 0 C5.3592233 0.46601942 5.3592233 0.46601942 7.875 2.5625 C8.431875 3.2740625 8.431875 3.2740625 9 4 C7.35 4 5.7 4 4 4 C3.67 3.34 3.34 2.68 3 2 C0.97536745 1.34786708 0.97536745 1.34786708 -1 1 C-0.67 0.67 -0.34 0.34 0 0 Z " fill="#13E27D" transform="translate(316,141)"/>
<path d="" fill="#FFFFFF" transform="translate(0,0)"/>
<path d="" fill="#FFFFFF" transform="translate(0,0)"/>
<path d="" fill="#FFFFFF" transform="translate(0,0)"/>
<path d="" fill="#FFFFFF" transform="translate(0,0)"/>
<path d="" fill="#FFFFFF" transform="translate(0,0)"/>
<path d="" fill="#FFFFFF" transform="translate(0,0)"/>
<path d="" fill="#FFFFFF" transform="translate(0,0)"/>
<path d="" fill="#FFFFFF" transform="translate(0,0)"/>
<path d="" fill="#FFFFFF" transform="translate(0,0)"/>
<path d="" fill="#FFFFFF" transform="translate(0,0)"/>
<path d="" fill="#FFFFFF" transform="translate(0,0)"/>
<path d="" fill="#FFFFFF" transform="translate(0,0)"/>
<path d="" fill="#FFFFFF" transform="translate(0,0)"/>
<path d="" fill="#FFFFFF" transform="translate(0,0)"/>
<path d="" fill="#FFFFFF" transform="translate(0,0)"/>
<path d="" fill="#FFFFFF" transform="translate(0,0)"/>
<path d="" fill="#FFFFFF" transform="translate(0,0)"/>
<path d="" fill="#FFFFFF" transform="translate(0,0)"/>
<path d="" fill="#FFFFFF" transform="translate(0,0)"/>
</svg>
